<?xml version="1.0" standalone="no"?>

<svg viewBox="0 0 799 799" style="background-color:#ffffff00" version="1.1" xmlns="http://www.w3.org/2000/svg" xmlns:xlink="http://www.w3.org/1999/xlink" xml:space="preserve" x="0px" y="0px" width="100%" height="100%">
	<g id="Background">
		<image x="0" y="0" width="799" height="799" xlink:href="justgiving-g.svg.images/image1.png"/>
		<path d="M 423.5 1.5 C 499.5 5.5 577.5 31.5 650.5 90.5 L 500.5 240.5 C 462.5 216.5 429.5 210.5 394.5 210.5 C 377.5 210.5 356.5 215.5 344.5 218.5 C 312.5 225.5 271.5 255.5 249.5 284.5 C 243.5 291.5 234.5 306.5 234.5 309.5 C 234.5 311.5 226.5 323.5 223.5 331.5 C 217.5 343.5 211.5 380.5 211.5 399.5 C 211.5 503.5 297.5 587.5 399.5 587.5 C 460.5 587.5 539.5 553.5 571.5 473.5 L 351.5 473.5 C 403.5 420.5 508.5 313.5 511.5 313.5 L 787.5 313.5 C 794.5 340.5 797.5 370.5 797.5 398.5 C 797.5 620.5 615.5 797.5 399.5 797.5 C 321.5 797.5 235.5 771.5 161.5 716.5 C 137.5 699.5 105.5 670.5 85.5 644.5 C 70.5 623.5 56.5 604.5 46.5 584.5 C 44.5 579.5 18.5 523.5 18.5 509.5 C 18.5 508.5 13.5 498.5 12.5 494.5 C 11.5 492.5 1.5 433.5 1.5 421.5 L 1.5 376.5 C 3.5 361.5 4.5 346.5 6.5 331.5 C 9.5 320.5 14.5 300.5 14.5 298.5 C 14.5 295.5 17.5 285.5 19.5 279.5 C 26.5 253.5 40.5 221.5 55.5 197.5 C 66.5 179.5 77.5 164.5 90.5 148.5 C 148.5 73.5 248.5 17.5 332.5 6.5 C 345.5 4.5 359.5 3.5 373.5 1.5 L 423.5 1.5 Z" stroke="#aa29b7" stroke-width="1" fill="#aa29b7"/>
	</g>
	<g id="Layer%201">
	</g>
</svg>