<?xml version="1.0" standalone="no"?>

<svg viewBox="0 0 1416 513" style="background-color:#ffffff00" version="1.1" xmlns="http://www.w3.org/2000/svg" xmlns:xlink="http://www.w3.org/1999/xlink" xml:space="preserve" x="0px" y="0px" width="100%" height="100%">
	<defs>
		<filter id="filter1" x="-100%" y="-100%" width="300%" height="300%">
			<!-- Glow -->
			<feColorMatrix result="out" in="SourceGraphic" type="matrix" values="0 0 0 1 0  0 0 0 1 0  0 0 0 1 0  0 0 0 1 0"/>
			<feMorphology result="out" in="out" operator="dilate" radius="2"/>
			<feGaussianBlur result="out" in="out" stdDeviation="0"/>
			<feBlend in="SourceGraphic" in2="out" mode="normal" result="Glow1"/>
		</filter>
		<linearGradient id="gradient1" x1="50%" y1="0%" x2="50%" y2="100%">
			<stop stop-color="#153357" stop-opacity="1" offset="0%"/>
			<stop stop-color="#3ac8f0" stop-opacity="1" offset="100%"/>
		</linearGradient>
		<filter id="filter2" x="-100%" y="-100%" width="300%" height="300%">
			<!-- Glow -->
			<feColorMatrix result="out" in="SourceGraphic" type="matrix" values="0 0 0 1 0  0 0 0 1 0  0 0 0 1 0  0 0 0 1 0"/>
			<feMorphology result="out" in="out" operator="dilate" radius="2"/>
			<feGaussianBlur result="out" in="out" stdDeviation="0"/>
			<feBlend in="SourceGraphic" in2="out" mode="normal" result="Glow2"/>
		</filter>
		<linearGradient id="gradient2" x1="50%" y1="0%" x2="50%" y2="100%">
			<stop stop-color="#153357" stop-opacity="1" offset="0%"/>
			<stop stop-color="#3ac8f0" stop-opacity="1" offset="100%"/>
		</linearGradient>
		<filter id="filter3" x="-100%" y="-100%" width="300%" height="300%">
			<!-- Glow -->
			<feColorMatrix result="out" in="SourceGraphic" type="matrix" values="0 0 0 1 0  0 0 0 1 0  0 0 0 1 0  0 0 0 1 0"/>
			<feMorphology result="out" in="out" operator="dilate" radius="2"/>
			<feGaussianBlur result="out" in="out" stdDeviation="0"/>
			<feBlend in="SourceGraphic" in2="out" mode="normal" result="Glow3"/>
		</filter>
		<linearGradient id="gradient3" x1="50%" y1="0%" x2="50%" y2="100%">
			<stop stop-color="#153357" stop-opacity="1" offset="0%"/>
			<stop stop-color="#3ac8f0" stop-opacity="1" offset="100%"/>
		</linearGradient>
		<filter id="filter4" x="-100%" y="-100%" width="300%" height="300%">
			<!-- Glow -->
			<feColorMatrix result="out" in="SourceGraphic" type="matrix" values="0 0 0 1 0  0 0 0 1 0  0 0 0 1 0  0 0 0 1 0"/>
			<feMorphology result="out" in="out" operator="dilate" radius="2"/>
			<feGaussianBlur result="out" in="out" stdDeviation="0"/>
			<feBlend in="SourceGraphic" in2="out" mode="normal" result="Glow4"/>
		</filter>
		<linearGradient id="gradient4" x1="50%" y1="0%" x2="50%" y2="100%">
			<stop stop-color="#153357" stop-opacity="1" offset="0%"/>
			<stop stop-color="#3ac8f0" stop-opacity="1" offset="100%"/>
		</linearGradient>
		<filter id="filter5" x="-100%" y="-100%" width="300%" height="300%">
			<!-- Glow -->
			<feColorMatrix result="out" in="SourceGraphic" type="matrix" values="0 0 0 1 0  0 0 0 1 0  0 0 0 1 0  0 0 0 1 0"/>
			<feMorphology result="out" in="out" operator="dilate" radius="2"/>
			<feGaussianBlur result="out" in="out" stdDeviation="0"/>
			<feBlend in="SourceGraphic" in2="out" mode="normal" result="Glow5"/>
		</filter>
		<linearGradient id="gradient5" x1="50%" y1="0%" x2="50%" y2="100%">
			<stop stop-color="#153357" stop-opacity="1" offset="0%"/>
			<stop stop-color="#3ac8f0" stop-opacity="1" offset="100%"/>
		</linearGradient>
		<filter id="filter6" x="-100%" y="-100%" width="300%" height="300%">
			<!-- Glow -->
			<feColorMatrix result="out" in="SourceGraphic" type="matrix" values="0 0 0 1 0  0 0 0 1 0  0 0 0 1 0  0 0 0 1 0"/>
			<feMorphology result="out" in="out" operator="dilate" radius="2"/>
			<feGaussianBlur result="out" in="out" stdDeviation="0"/>
			<feBlend in="SourceGraphic" in2="out" mode="normal" result="Glow6"/>
		</filter>
		<linearGradient id="gradient6" x1="50%" y1="0%" x2="50%" y2="100%">
			<stop stop-color="#153357" stop-opacity="1" offset="0%"/>
			<stop stop-color="#3ac8f0" stop-opacity="1" offset="100%"/>
		</linearGradient>
		<filter id="filter7" x="-100%" y="-100%" width="300%" height="300%">
			<!-- Glow -->
			<feColorMatrix result="out" in="SourceGraphic" type="matrix" values="0 0 0 1 0  0 0 0 1 0  0 0 0 1 0  0 0 0 1 0"/>
			<feMorphology result="out" in="out" operator="dilate" radius="2"/>
			<feGaussianBlur result="out" in="out" stdDeviation="0"/>
			<feBlend in="SourceGraphic" in2="out" mode="normal" result="Glow7"/>
		</filter>
		<linearGradient id="gradient7" x1="50%" y1="0%" x2="50%" y2="100%">
			<stop stop-color="#153357" stop-opacity="1" offset="0%"/>
			<stop stop-color="#3ac8f0" stop-opacity="1" offset="100%"/>
		</linearGradient>
		<filter id="filter8" x="-100%" y="-100%" width="300%" height="300%">
			<!-- Glow -->
			<feColorMatrix result="out" in="SourceGraphic" type="matrix" values="0 0 0 1 0  0 0 0 1 0  0 0 0 1 0  0 0 0 1 0"/>
			<feMorphology result="out" in="out" operator="dilate" radius="2"/>
			<feGaussianBlur result="out" in="out" stdDeviation="0"/>
			<feBlend in="SourceGraphic" in2="out" mode="normal" result="Glow8"/>
		</filter>
		<linearGradient id="gradient8" x1="50%" y1="0%" x2="50%" y2="100%">
			<stop stop-color="#153357" stop-opacity="1" offset="0%"/>
			<stop stop-color="#3ac8f0" stop-opacity="1" offset="100%"/>
		</linearGradient>
		<linearGradient id="gradient9" x1="50.3%" y1="0%" x2="50.3%" y2="109.9%">
			<stop stop-color="#ffffff" stop-opacity="1" offset="0%"/>
			<stop stop-color="#9adc3e" stop-opacity="1" offset="16.7%"/>
			<stop stop-color="#1a3b1c" stop-opacity="1" offset="100%"/>
		</linearGradient>
		<linearGradient id="gradient10" x1="50%" y1="0%" x2="50%" y2="100%">
			<stop stop-color="#2c2d82" stop-opacity="1" offset="0%"/>
			<stop stop-color="#2870af" stop-opacity="1" offset="17.2%"/>
			<stop stop-color="#c7e5f6" stop-opacity="1" offset="68.9%"/>
			<stop stop-color="#ffffff" stop-opacity="1" offset="100%"/>
		</linearGradient>
		<linearGradient id="gradient11" x1="50%" y1="0%" x2="50%" y2="100%">
			<stop stop-color="#2b4391" stop-opacity="1" offset="0%"/>
			<stop stop-color="#2e74b2" stop-opacity="1" offset="100%"/>
		</linearGradient>
		<filter id="filter9" x="-100%" y="-100%" width="300%" height="300%">
			<!-- Glow -->
			<feColorMatrix result="out" in="SourceGraphic" type="matrix" values="0 0 0 1 0  0 0 0 1 0  0 0 0 1 0  0 0 0 1 0"/>
			<feMorphology result="out" in="out" operator="dilate" radius="2"/>
			<feGaussianBlur result="out" in="out" stdDeviation="0"/>
			<feBlend in="SourceGraphic" in2="out" mode="normal" result="Glow9"/>
		</filter>
		<linearGradient id="gradient12" x1="50%" y1="0%" x2="50%" y2="100%">
			<stop stop-color="#153357" stop-opacity="1" offset="0%"/>
			<stop stop-color="#3ac8f0" stop-opacity="1" offset="100%"/>
		</linearGradient>
		<filter id="filter10" x="-100%" y="-100%" width="300%" height="300%">
			<!-- Glow -->
			<feColorMatrix result="out" in="SourceGraphic" type="matrix" values="0 0 0 1 0  0 0 0 1 0  0 0 0 1 0  0 0 0 1 0"/>
			<feMorphology result="out" in="out" operator="dilate" radius="2"/>
			<feGaussianBlur result="out" in="out" stdDeviation="0"/>
			<feBlend in="SourceGraphic" in2="out" mode="normal" result="Glow10"/>
		</filter>
		<linearGradient id="gradient13" x1="58.1%" y1="-31.9%" x2="58.1%" y2="157.9%">
			<stop stop-color="#25759b" stop-opacity="1" offset="0%"/>
			<stop stop-color="#38c0e8" stop-opacity="1" offset="100%"/>
		</linearGradient>
		<filter id="filter11" x="-100%" y="-100%" width="300%" height="300%">
			<!-- Glow -->
			<feColorMatrix result="out" in="SourceGraphic" type="matrix" values="0 0 0 1 0  0 0 0 1 0  0 0 0 1 0  0 0 0 1 0"/>
			<feMorphology result="out" in="out" operator="dilate" radius="2"/>
			<feGaussianBlur result="out" in="out" stdDeviation="0"/>
			<feBlend in="SourceGraphic" in2="out" mode="normal" result="Glow11"/>
		</filter>
		<linearGradient id="gradient14" x1="171.9%" y1="-144.4%" x2="171.9%" y2="209%">
			<stop stop-color="#2a87ad" stop-opacity="1" offset="0%"/>
			<stop stop-color="#32a8d0" stop-opacity="1" offset="100%"/>
		</linearGradient>
		<filter id="filter12" x="-100%" y="-100%" width="300%" height="300%">
			<!-- Glow -->
			<feColorMatrix result="out" in="SourceGraphic" type="matrix" values="0 0 0 1 0  0 0 0 1 0  0 0 0 1 0  0 0 0 1 0"/>
			<feMorphology result="out" in="out" operator="dilate" radius="2"/>
			<feGaussianBlur result="out" in="out" stdDeviation="0"/>
			<feBlend in="SourceGraphic" in2="out" mode="normal" result="Glow12"/>
		</filter>
	</defs>
	<g id="Layer%201">
	</g>
	<g id="Layer%202">
		<path id="N" filter="url(#filter1)" d="M 1012.1 204.5 L 1012.4 203 L 1014.8 201.4 L 1016.4 199.8 L 1017.5 198.9 L 1019 197.9 L 1020.4 198.3 L 1019.5 200.6 L 1023.8 198 L 1061.8 198 L 1062.9 199.4 L 1064 198.9 L 1065.1 198.3 L 1066 199.4 L 1066.4 200.8 L 1067 202.6 L 1067.9 201.1 L 1070.2 202.1 L 1074.9 207.1 L 1074.4 209.3 L 1076.1 209.2 L 1081 213.8 L 1083.8 216.7 L 1083.8 218.1 L 1087.9 223.6 L 1092.4 226.1 L 1094.8 228.6 L 1098 232 L 1100.9 235.1 L 1104.2 238.8 L 1105.4 242.9 L 1107.7 242.5 L 1112.3 247.5 L 1115.3 250.7 L 1117.8 253.4 L 1124.9 261 L 1121.5 261.3 L 1127 263.3 L 1130.1 266.7 L 1130.5 268.6 L 1132.7 269.5 L 1135.4 268.6 L 1135 267 L 1137.6 265.6 L 1138.8 263 C 1138.8 263 1141.1 260.6 1141.1 259.8 C 1141.1 259.3 1138.8 260.6 1138.8 259.8 C 1138.8 258.8 1140 256.8 1140 255.5 C 1140 254.5 1138.9 254.2 1138.9 253 C 1139 248.3 1139.1 242.5 1139.1 237 C 1139.1 236.2 1141.5 231.5 1141.5 230.8 C 1141.5 230 1145.2 225.2 1145.3 224.5 C 1145.3 223.8 1139.1 231.2 1139.1 230.5 C 1139.1 229.6 1139.8 224.4 1139.8 223.5 C 1139.7 217.6 1139 217.6 1138.8 217.5 C 1138 217.1 1135.5 213.3 1135.5 213.3 L 1130.5 209.8 L 1130.5 206.5 L 1128 208.8 L 1124.5 206.5 L 1120.7 204.5 L 1120.7 198 L 1175.6 198 L 1176.6 198 L 1176.6 198.9 L 1179.8 198 L 1180 199 L 1179 200.2 L 1176.6 202.4 L 1175 201.6 L 1176 203.4 L 1170.8 209 L 1170.1 209.7 L 1167 211.4 L 1168.9 211.9 L 1167.9 213.1 L 1166.8 214.6 L 1167.9 215.6 L 1168.9 216.9 C 1168.9 216.9 1168.9 220.3 1168.9 226 C 1168.9 228.4 1168.9 231.2 1168.9 234.3 C 1168.9 235.9 1167.5 237.7 1167.5 239.5 C 1167.5 241 1168.9 242.6 1168.9 244.3 C 1168.9 245.7 1169 246 1166 253.5 C 1166 254.6 1168.9 251.1 1168.9 252.3 C 1168.9 254.2 1168.9 256.2 1168.9 258.2 C 1168.9 260.1 1167.3 262.1 1167.3 264 C 1167.2 265.8 1168.9 267.6 1168.9 269.5 C 1168.9 271 1168.9 272.5 1168.9 274 C 1168.9 277.3 1166 283.3 1166.3 283.8 C 1168 287.3 1168.9 292 1168.9 296 C 1168.9 296.5 1166.8 293.4 1168 298.3 C 1169.9 296.9 1167.9 300.4 1167.9 301.2 C 1167.9 301.9 1168.9 304.3 1168.9 305 C 1168.9 305.8 1168.3 309.2 1168.3 310 C 1168.3 310.8 1163.3 306.4 1160.8 304.8 C 1160.7 306.4 1168.9 313.1 1168.9 314.7 C 1168.9 318.7 1168.9 322.5 1168.9 326 C 1168.9 327.4 1166.2 328 1166.3 329.3 C 1166.3 330.3 1168.9 332 1168.9 333 C 1168.9 334.3 1168.9 335.6 1168.9 336.7 C 1168.9 337.5 1165.5 345 1165.5 345.8 C 1165.5 347.1 1168.9 341.6 1168.9 342.8 C 1168.9 348.9 1168.9 352.5 1168.9 352.5 C 1169 352.5 1167.6 355.8 1167.6 355.8 L 1169.1 359.1 L 1167.3 362.6 L 1164.5 362.2 L 1161.7 359.2 L 1144.5 340.7 L 1146.4 339.8 L 1142 338 L 1140.1 331.4 L 1138 333.7 L 1126.7 321.5 L 1127.2 315.1 L 1126.7 311.4 L 1127.4 310.8 L 1126.7 310 L 1127.3 309 L 1126.7 308.5 L 1126.9 305.8 L 1125.1 306.4 L 1125.9 307.1 L 1122.8 307.9 L 1114.7 308.5 L 1105.7 298.8 L 1105.1 295.1 L 1102.5 295.5 L 1100.9 290.5 L 1099.1 291.7 L 1089.2 281 L 1088.4 277.9 L 1086.7 278.3 L 1085.3 276.9 L 1084.1 271.5 L 1082.3 273.6 L 1072.4 263 L 1071.8 261 L 1070.5 262 L 1069.3 262 L 1068.4 261 L 1066 259.1 L 1066.4 260.8 L 1064.5 265 L 1065 267.4 L 1065.9 269.6 L 1065.6 271.5 L 1066.4 273 L 1066.4 317 L 1066 323.6 L 1063.9 322.8 L 1064.6 329.6 L 1066.1 335.4 L 1062 334.8 L 1066.4 340 L 1066.4 347.5 C 1066.4 347.5 1073.3 355.2 1077.4 359.7 C 1078 360.3 1076.8 361 1077.3 361.5 C 1078.1 360.9 1080.5 362.8 1080.5 362.7 C 1080.8 362.4 1081.6 363.9 1082 364.3 C 1082.9 365.3 1082 365.9 1082 365.9 L 1080.9 366.8 L 1078.5 366.3 L 1075.9 367 L 1054.3 367 L 1051.3 364 L 1048.3 360.5 L 1044.5 358.8 L 1040.2 357.6 L 1035.5 355.5 L 1030.2 354 L 1028 351.4 L 1024.2 347.5 L 1031.3 347.5 L 1036.8 348.3 L 1039 348 L 1036.2 345.3 L 1036.2 341.8 L 1036.2 335.4 L 1036.9 331.8 L 1036.2 327.4 C 1036.2 327.4 1036.6 323.9 1036.5 323.6 C 1036.5 323.6 1036.2 322.1 1036.2 320.2 C 1038 318.5 1035.6 315.9 1036.2 315 C 1041.5 306.9 1036.2 290.6 1036.2 290.6 L 1036.8 287.1 L 1036.4 282 L 1039.8 278.6 L 1036.1 279.6 L 1037 275.9 L 1036.1 268.9 L 1036.2 235 L 1037.5 233.8 L 1038.4 232 L 1041.4 232.4 L 1038.9 229.9 L 1036.2 226.8 L 1036.2 225.3 L 1036.2 219.4 L 1036.2 217.5 L 1033.5 214.5 L 1033.5 212.6 L 1031.2 212 L 1030.2 211 L 1027.5 211 L 1024.3 209 L 1023 208.4 L 1023.4 210.6 L 1020.1 211 L 1018.2 211 C 1018.2 211 1017.4 211.1 1016.4 210.1 C 1016.1 209.8 1017 207.9 1016.8 207.6 C 1016.2 207 1014.5 208.7 1014 208.1 C 1013.7 207.8 1012.8 206.3 1012.5 206 C 1011.8 205.2 1011.8 204.3 1012.1 204.5 Z" fill="url(#gradient1)"/>
		<path filter="url(#filter2)" d="M 922.8 247.8 L 923.5 243.5 L 927.1 240.5 L 927.8 235.5 L 931.1 233 L 931.5 230.4 L 935.1 225.3 L 935.6 220.6 L 938.3 219.6 L 944.6 218.1 L 946.1 217.3 L 947.6 217.6 L 953.9 216.8 L 970.6 216.8 L 972 216.8 L 975 217 L 978 218.5 L 980.5 220.8 L 982.5 216.3 L 983.5 219.3 L 983.5 223.3 L 987 226 L 996.3 225.5 L 997 228 L 992.5 226.8 L 990.3 230 L 992.5 232.5 L 994 233.8 L 996.3 237.8 L 998 241.8 L 997.6 246.1 L 998.7 248.1 L 998.7 250 L 998.7 252.9 L 998.7 301.4 L 998.8 306.4 L 1002.6 303.9 L 1004.4 304.8 C 1004.4 304.8 999.5 308.3 999.4 314 C 999.2 314.6 998 314.7 997.8 315.5 C 997.5 316.2 998.2 317.8 998 318.5 C 997.8 319.1 996.9 318.7 996.8 319.3 C 996.3 320.7 996.2 322.5 996.3 322.5 C 996.3 322.5 995 324.1 995 324.1 L 994.9 327.3 L 993.9 328.5 L 993.3 329.4 L 992.6 330.4 L 991.3 331.8 L 991.6 333.6 L 990.1 337.1 L 987 337.8 L 985.3 339.8 L 983.3 341.8 L 980.3 343.8 L 980.9 344.7 L 979.8 345.4 L 976.3 345.7 L 974.1 347.6 L 971.5 348.3 L 952.6 348.2 L 949.1 347.8 L 945.4 346 L 941.6 343.8 L 939.1 342.1 L 935.4 338.5 L 929.1 336 L 932.4 335.4 L 929.3 329.1 L 926.9 324.8 L 925.4 320.3 L 924.4 315.8 L 923.9 310.7 L 923.9 308 L 923.9 284 L 922.1 280 L 923.4 274.8 L 923.9 273.5 L 920.1 269.8 L 922 268.3 L 923.9 264 L 923.9 250.9 L 922.8 247.8 ZM 939.9 198.4 L 937.3 198.6 L 932.1 199.8 L 928.4 201.6 L 924.8 204.3 L 921.1 205.6 L 917.8 208.6 L 916.8 210.4 L 914.8 213.9 L 913.7 216 L 910.8 221.4 L 912.3 212.9 L 908 216.9 L 903.5 220.1 L 900.5 222.6 L 900.2 224.9 L 897 228.5 L 894.2 231.6 L 897.1 230.9 L 893.8 235.5 L 888 240.1 L 885.3 245.9 L 883.9 249 L 887.8 249.8 L 882.4 254.4 L 883.9 258.3 L 884 265.3 L 884 311.3 L 882.2 317.6 L 884.4 318.8 C 884.4 318.8 883.3 321 883.9 322.9 C 884.3 324.4 885.2 329.7 886.1 330.9 C 887.1 332.2 890.1 339.5 890.3 334.9 C 890.8 321 892.1 333.9 892.3 333 C 892.4 332.3 893.1 333 894.5 335.4 C 895 336.3 895.8 340.9 894.3 341.8 C 895.1 343.4 896.5 345.1 897.4 346.8 C 898 347.9 899.7 350.7 900.8 351.1 C 903.8 352.4 904.9 354.3 904.9 354.3 L 908 354.4 L 911.1 358.6 L 915.6 360.8 L 917.8 362 L 921.5 361.1 L 925 364.8 L 930.3 365.9 L 935.4 365.1 L 937.6 366.6 L 945.5 367.1 L 975.5 367 L 979.5 367 L 983.4 366.4 L 985 365.5 L 987.5 364.6 L 994.4 363.8 L 998.8 360.8 L 994.6 357.6 L 997.5 357 L 1001.9 358.6 L 1008.3 355.6 L 1010.3 354.5 L 1012.1 352.3 L 1013.9 350.2 L 1014.8 347.8 L 1010.9 345.9 L 1010.3 345.1 L 1020 343 L 1021 342 L 1023 339.6 L 1024.6 337.7 L 1026 332.9 C 1026 332.9 1028.3 330.3 1028.4 330.3 C 1028.4 330.2 1029 333 1028.9 332.6 C 1028.9 332.5 1029.3 333.5 1029.9 332.9 C 1030.6 332 1031.7 329.4 1031.7 329.4 L 1033.4 325.6 L 1031.3 321 L 1033.5 319.5 L 1029.8 311.8 L 1029.8 307 L 1033.3 312.3 L 1032.8 254.8 L 1030.8 250 L 1027.3 249.5 L 1033.3 243.3 L 1030.7 237.1 L 1028.8 236.5 L 1028.4 232.9 L 1026.3 229.3 L 1021.5 225.3 L 1022 231.8 L 1019.5 225.3 L 1016.3 219.8 L 1013 216.8 L 1010.5 213.3 L 1008.8 211.8 L 1006.3 209.8 L 1003 207.8 L 1000.3 206.5 L 997 204.3 L 994 202.5 L 990.5 201.8 L 986.8 199.8 L 982 198.8 L 978.2 198 L 943.9 198 L 939.9 198.4 ZM 959 254 L 953.4 272.9 L 942.4 279.2 L 942.4 291.8 L 953.4 298.1 L 959 317 L 964.5 317 L 970.1 298.1 L 981.1 291.8 L 981.1 279.2 L 970.1 272.9 L 964.5 254 L 959 254 Z" fill="url(#gradient2)"/>
		<path id="H" filter="url(#filter3)" d="M 733 198.2 L 789.1 198.2 L 795.6 200.7 L 800.2 199.1 L 805.5 198 L 805.7 200.4 L 804.4 202 L 801.5 204 L 800 207.3 L 796.2 210.9 L 791.7 213.1 L 792.1 216.3 L 789.5 219.3 L 789.5 222.9 L 788.2 226 L 789.6 235.2 L 789.7 253.5 L 789.3 261.4 L 787.5 265 L 782.4 262.8 L 787.3 269.3 L 791.8 268 L 793.4 268.8 L 795.7 271.1 L 799.3 270.9 L 804.8 272.5 L 838 272.5 L 843.4 265.7 L 843.2 217.8 L 843 215 L 839.2 210.4 L 840.2 208.9 L 836.8 209.3 L 834.6 206.2 L 831.6 203 L 831.9 201 L 835.3 200.1 L 836.9 199.1 L 838 198.7 L 837.4 198.2 L 840.1 198.2 L 846 199.9 C 846 199.9 847.8 198.7 848 198.9 C 848 198.9 851.6 199.2 854.5 199.2 C 858.4 199.3 862.1 198.3 868 198.3 C 869.7 198.3 871.5 198.3 873.3 198.3 C 875.8 198.3 878.3 198.3 880.6 198.3 C 880.2 199.2 881.8 200.2 883 200.2 C 887.2 200.2 887 199.5 887 199.5 L 887.7 200.2 L 887.5 202.4 L 886.3 205 L 884.2 207.7 L 880.9 211.7 L 880.9 217.2 L 879.3 220.5 L 879.3 225.2 L 880.9 232 L 879 234.4 L 877.9 235.8 L 875.6 238.7 L 875.6 242.5 L 875.6 245.5 L 876.5 246.7 L 877.9 248.5 L 880.9 252.2 L 880.9 259.2 C 880.9 259.2 882 263.8 880.9 264.5 C 880.7 264.6 880.6 268.3 880.5 274.1 C 880.5 276.5 879.2 277.8 879.2 280.8 C 878.2 289.2 880.5 287.5 880.5 290.4 C 880.5 300.2 880.6 311.3 880.6 321.1 C 880.7 323 880.7 324.9 880.7 326.7 C 880.8 338.3 880.9 346.8 880.9 346.8 L 885.3 352.3 L 883.2 355.6 L 887.2 358.1 L 889.2 360.6 L 893.7 362.9 L 897 367 L 891.4 367 L 885.5 365.4 L 880.2 367 L 873.9 367 L 844.6 367 L 842.5 366.3 L 839.5 364.9 L 835.6 364.3 L 833.2 362.9 L 833.8 361.3 L 833.6 360.2 L 836.8 358.5 L 837.2 355.7 L 842.6 351.5 L 841.1 350.6 L 843.4 346.8 L 843.4 306.4 L 844.5 305.3 L 845.5 295 L 843.4 292.7 L 841.8 287.6 L 838 286 L 833.5 284.2 L 832.7 284.4 L 832.4 286.4 L 817.1 285.9 L 808.5 283.4 L 800.1 281.3 L 807.4 286 L 795.1 286 L 789.8 292.7 L 789.8 334.4 L 786 340.2 L 789.8 339.3 L 789.8 346.8 C 789.8 346.8 792.4 351.9 792.2 353 C 791.7 355.5 789.3 353.1 791.5 356.3 C 790.2 356.2 797 358.9 797 358.9 L 800.5 360.2 L 804 364.5 L 803 365.8 L 799.3 365.5 L 796.1 366.8 L 792.3 365 L 790.9 365.9 L 789 367 L 760.7 367 L 757.4 367 L 752.8 367 L 750.3 362.4 L 748.7 364.9 L 744 364.6 L 739.9 366.1 L 736.2 367 L 739 363.4 L 742.1 361.3 L 743.1 358.2 L 747.3 355.5 L 749.3 353.9 L 752.6 344.9 L 754.6 342.4 L 752.9 340 L 752.2 337.7 L 752.1 259.2 L 753.4 249.7 L 755.6 247.7 L 752 241.2 L 752 234.5 L 755 223.7 L 754.7 220.8 L 752 218.8 L 752 215.3 L 749.1 210.5 L 743.9 207.2 L 740.8 203.6 L 737 201.9 L 733 198.2 Z" fill="url(#gradient3)"/>
		<path id="T" filter="url(#filter4)" d="M 620.3 199.3 L 616 200.8 L 616 213 L 619 218.5 L 618.5 221 L 616 225.5 L 616 252.1 L 624.3 237.8 L 625.5 232.3 L 624.3 228 L 627.5 228.3 L 638.5 211.5 L 644.8 211.5 L 645.8 207.8 L 649.3 209.5 L 656.3 211.5 L 666.5 211.5 L 666.5 231.5 L 668 239.8 L 670.1 244 L 675 242 L 673 248 L 667.8 252.5 L 666.5 256 L 666.5 295.3 L 669 304 L 669.8 306.3 L 669.5 308.3 L 667 311 L 667.3 318.3 L 668.3 334 L 666.5 346.7 L 662.5 348.5 L 660.5 353.5 L 656.3 354.5 L 652.8 358.8 L 640.5 367 L 695.8 367.5 L 706 365.3 L 711.8 366 L 720 367 L 727.9 367 L 727.3 363.8 L 720 361 L 717.8 357.3 L 713 354 L 709 353 L 707.8 349.8 L 705.8 346.7 L 705.8 323 L 701 319.8 L 704.3 318 L 705.8 312.3 L 705 280 L 699.3 282.8 L 700.3 277.3 L 703 276.5 L 705.8 273.8 L 705.3 229.7 L 702.7 222.7 L 705.3 218.6 L 704.9 213.4 L 706.3 212.3 L 731.8 212.3 L 741 222 L 746.3 216.8 L 744.5 222.5 L 742.3 224.8 L 746.5 232 L 750.3 233 L 751 236.5 L 754 238.3 L 756 233.8 L 760 231.8 L 758.5 225.8 L 760 221.5 L 760 209.5 L 758.3 205 L 756.3 204 L 755.5 200.8 L 753.3 199.3 L 750 198 L 680.3 198 L 677.8 200.3 L 674.3 200.8 L 671.8 198 L 629.3 198.5 L 620.3 199.3 Z" fill="url(#gradient4)"/>
		<path filter="url(#filter5)" d="M 574 263 L 576 263 L 582 292 L 584 293 L 584 290 L 586 290 L 588 296 L 587 297 L 579 297 L 578 296 L 578 293 L 566 293 L 574 263 ZM 563 367 L 564 364 L 563 360 L 551 350 C 551 350 551.3 347.9 551 348 C 550.8 348.1 554 341 554 341 L 553 339 L 554 337 L 555 336 L 555 334 L 553 332 L 555 331 L 557 330 L 561 313 L 587 313 L 589 324 L 592 325 L 592 328 L 591 330 L 592 335 L 594 337 L 596 341 L 596 349 L 585 358 L 585 361 L 586 363 L 591 363 L 590 361 L 589 360 L 589 358 L 591 358 L 593 360 L 595 362 C 595 362 597.8 362.5 598 363 C 598.3 363.5 599 364 599 364 L 598 365 L 595 366 L 595 367 L 651 367 L 653 366 L 654 364 L 654 362 L 652 360 L 649 358 L 643 356 L 642 357 L 642 360 L 641 362 L 639 361 L 638 359 L 635 359 L 634 357 L 636 356 L 638 355 L 637 353 L 637 348 L 630 323 L 625 318 L 625 316 L 628 316 L 623 296 L 621 296 L 620 297 L 616 297 L 616 295 L 621 294 L 622 292 L 601 216 L 600 210 L 599 209 L 597 208 L 597 200 L 595 199 L 551 199 L 550 201 L 551 204 L 550 206 L 563 216 L 563 221 L 562 222 L 560 232 L 563 235 L 566 236 L 567 240 L 565 240 L 560 237 L 558 237 L 544 284 L 544 288 L 546 288 L 545 294 L 543 294 L 540 297 L 527 347 L 525 349 L 510 360 L 509 362 L 509 366 L 511 367 L 526 367 L 526 362 L 524 362 L 523 363 L 522 361 L 522 360 L 527 357 L 527 364 L 530 364 L 531 366 L 534 367 L 563 367 Z" fill="url(#gradient5)"/>
		<path filter="url(#filter6)" d="M 469 218 C 468.9 217.8 475 221 475 221 L 480 224 L 485 230 L 488 235 L 491 243 L 494 253 L 495 260 L 496 269 L 497 291 L 498 294 L 501 296 L 501 298 L 497 296 L 496 299 L 495 309 L 493 315 L 491 321 L 489 325 L 487 331 L 483 337 L 478 342 L 469 346 L 469 324 L 468 321 L 466 320 L 466 317 L 468 316 L 468 312 L 469 310 L 469 253 L 468 252 L 467 240 L 467 233 L 468 232 C 468 232 469.1 218.3 469 218 ZM 419.3 207.1 L 422 207.4 L 423 210 L 430 215 L 434 214 L 434 216 L 435 217.8 L 437.5 218 L 437.4 220.4 L 433.8 221 L 433.8 237.6 L 437.3 237.4 L 436.9 243.3 L 434.9 241.6 L 433.6 242.8 L 433.6 292.1 L 435 293.1 L 435 296.8 L 433.8 298.6 L 433.8 347.3 L 431.5 348.9 L 427 352 L 427 354 L 432 353 L 429.5 354.8 L 429 357 L 423 357 L 423.1 354.5 L 422 355 L 419 360 L 414 362 L 411.4 363.8 L 412.4 366 L 414.9 366.6 L 460.4 366.6 L 461.3 365.9 L 455 365 L 454.8 362.1 L 452 359 L 452.9 358.8 L 456.9 361.9 L 460 362 L 464 361 L 465 365 L 468 366 L 476 365 L 484 363 L 489 361 L 494 359 L 498 357 L 497 355 L 496 352 L 496 350 L 497.9 350.5 L 498.4 352.8 L 500 355 C 500 355 501.3 355.5 502 355 C 502.8 354.5 506 352 506 352 L 510 348 L 515 343 L 520 337 L 524 330 L 527 323 L 529 318 L 531 311 L 531 304 L 530 302 L 530 300 L 532 299 L 533 293 L 532 268 L 531 260 L 529 253 L 528 247 L 525 244 L 525 240 L 523 235 L 519 229 L 515 223 L 510 218 L 504 212 L 503 214 L 495 214 L 494 209 L 491 205 L 486 203 L 480 201 L 472 199 L 463 199 L 461 200 L 458 203 L 456.6 204.3 L 454.9 204.9 L 455 203 L 456 200 L 455 198 L 418 198 L 419 200 L 416 202 L 416 205 L 419.3 207.1 Z" fill="url(#gradient6)"/>
		<path id="L" filter="url(#filter7)" d="M 311 367 L 333 352 L 335 352 L 335 350 L 338 348 L 338 297 L 340 295 L 342.4 292.8 L 342.9 290.1 L 340.6 289.8 L 338.3 290.8 L 338.1 217.1 L 336 216 L 336 214 L 338.4 210 L 339.9 208.6 L 338.1 208.8 L 338.1 206.1 L 337 207 L 336 210 L 334 213 L 331 212 L 313 198 L 351 198 L 352 200 L 358 200 L 359 198 L 395 198 L 395 203 L 387 210 L 384 210 L 385 207 L 383 206 L 379 207 L 378 209 L 378 212 L 381 213 L 381 215 L 378 217 L 378 224 L 375 225 L 377 226 L 377 266 L 374 266 L 372 265 L 370 266 L 374 268 L 377 269 L 377 336 L 376 337 L 376 340 L 376.9 341.3 L 375.9 342.3 L 373.6 343.8 L 374 349 L 377 351 L 379 349 L 383 347 L 388 347 L 390 345 L 392 339 L 396 331 L 401 318 L 407 302 L 409 297 L 414 292 L 414 289 L 417 288 L 418 297 L 417 299 L 418 301 L 417 304 L 417 312 L 414 314 L 414 316 L 417 316 L 418 344 L 416 344 L 416 346 L 418 347 L 418 359 L 418 366 L 416 367 L 408 367 L 407 364 L 407 362 L 408.5 359.1 L 408 358 L 405.6 359.9 L 404.3 359.5 L 402 355 L 401 352 L 399 352 L 400 356 L 401 358 L 402 360 L 404 363 L 404 366 L 402 367 L 362 367 L 360 365 L 359 362 L 357 361 L 357 364 L 355 366 L 354 367 L 311 367 Z" fill="url(#gradient7)"/>
		<path id="E" filter="url(#filter8)" d="M 217.6 206.8 L 218.3 203.4 L 220.8 200.5 L 224 199 L 248 199 L 248 201 L 247.3 202.4 L 247.3 203.9 L 248.6 204.5 L 253.6 204.5 L 254.8 202.8 L 257.1 200.8 L 257 199 L 297 199 L 299 201 L 299.8 203.3 L 302.3 203.3 L 304 201 L 306.1 199 L 317.5 199 L 317.5 207.5 L 313.8 208 L 313.8 210 L 316.3 210.6 L 317.6 212 L 317.6 261.4 L 316.4 262 L 314.1 262 L 312.6 260.8 L 305.8 245 L 305.8 240 L 304.3 238.8 L 304 235 L 301.9 234.5 L 299.3 232.4 L 296.5 226.3 L 296 223 L 297.3 222 L 297.3 217.1 L 291.8 216.3 L 288.8 214.3 L 287.3 215.8 L 264.3 216 L 264 227 L 262.4 228.6 L 262.4 233 L 264 234 L 264 270 L 266 272 L 278 272 L 294 253 L 296 253 L 297.5 255.3 L 297.5 273 L 295.5 274.3 L 295.5 277.8 L 296.6 279 L 297.4 280.6 L 297.4 310.5 L 293.5 310.5 L 284 299 L 284 296 L 271 284 L 269 285 L 267 287 L 266 288.9 L 264 291 L 264 300 L 261.4 302.8 L 261.3 304.6 L 263.3 306.5 L 264 310 L 264 347.4 L 273.3 347.4 L 274.8 348.4 L 283 348.4 L 285 347 L 291.4 346.6 L 292 345 L 294 344 L 295.1 342.9 L 295.4 340 L 297.4 338.3 L 297.4 335.8 L 296 335 L 297 333 L 312 300 L 312.9 298.5 L 314.9 297.8 L 315 295.3 L 313 295 L 314.1 292 L 315.9 289.6 L 317.8 291.3 L 316.4 293.1 L 316.8 296.6 L 318.9 295.4 L 318.4 328 L 315.3 334.6 C 315.3 334.6 311 332.9 310.5 333.1 C 310 333.4 310.3 335 310.3 335 L 313.1 336.9 L 308.6 338.1 L 309.8 340.9 L 314.5 339.3 L 318 336 L 318 365 L 305 366 L 303 364 L 302 360 L 301 364 L 299 366 L 296 367 L 292 366 C 292 366 288.5 367.5 289 367 C 289.5 366.5 217 367 217 367 L 216 364 L 217 361 L 229 350 L 229 313 L 231.8 310 L 231.8 306.5 L 230.4 305.9 L 230.4 303 L 233.3 301.3 L 233.3 293.5 L 230.4 292.1 L 228.9 290 L 228.6 234.6 L 230.8 232.5 L 233.4 230.5 L 233.4 228 L 230.3 227 L 228.4 224.3 L 228.4 215.1 L 217.6 206.8 Z" fill="url(#gradient8)"/>
		<path id="Flower" d="M 134 391 L 149.9 384.4 C 152 382.8 156.2 381.8 156.7 379.2 C 158.2 373.5 159.8 368.3 161.9 363.6 C 162.4 361.5 169.7 351.7 169.7 348.1 C 169.7 346.5 169.1 346.5 167.6 346.5 C 166.5 346.5 162.9 347.5 161.9 347.5 C 160.3 347.5 157.2 347 154.6 346 C 155.1 345.5 155.7 345.5 156.2 344.9 C 155.1 343.9 153.6 343.9 152.5 343.9 C 153.1 343.9 154.1 343.4 155.1 342.9 C 154.6 340.8 151.5 339.8 152 337.7 C 153.6 338.7 155.7 340.3 157.7 341.3 C 158.2 340.8 157.7 339.8 157.7 338.7 C 157.7 337.2 156.7 336.1 156.2 335.1 C 158.8 337.2 161.4 340.3 165 342.3 C 166.5 343.4 169.1 343.4 171.2 343.9 C 173.3 340.8 170.7 336.6 173.3 333.5 L 174.3 334.6 C 174.3 334.6 174.9 334 174.9 333.5 C 175.9 335.1 176.4 337.2 177.4 338.7 C 179.5 334.6 181.1 329.9 182.6 325.2 L 182.6 314.9 C 182.1 312.3 181.1 308.6 180 305 C 178.5 307.1 176.9 310.7 176.9 313.3 C 176.9 314.9 177.4 316.9 178 319 C 174.3 315.9 173.8 312.3 174.3 308.1 C 170.7 310.2 166.5 311.7 165 311.7 L 161.9 311.7 C 161.9 311.2 162.9 310.7 162.9 309.1 C 162.9 308.1 162.4 308.6 161.9 308.6 C 163.4 308.1 164.5 305.5 165 302.9 C 163.4 304 161.4 306 160.8 307.1 C 160.8 306.6 160.3 307.1 160.3 305.5 C 160.3 303.4 164.5 299.3 165.5 298.8 C 164 297.7 162.4 297.2 160.8 296.7 C 157.7 295.7 154.6 293.1 151.5 290 C 155.1 289.4 160.8 288.4 161.9 288.4 C 165 288.4 171.2 290.5 174.3 291.5 C 174.3 289.4 173.3 286.3 173.3 285.3 C 173.3 280.6 176.4 273.4 178 269.7 C 186.3 279.1 183.2 278.5 183.2 285.8 C 183.2 287.4 184.7 287.4 185.2 287.9 C 190.9 282.2 198.2 281.7 204.9 280.1 C 203.9 285.8 196.6 291.5 191.5 293.6 C 193.5 295.1 200.3 297.7 202.4 301.9 C 202.4 301.9 202.4 302.4 201.8 302.9 C 198.2 299.3 192 297.2 192 298.8 C 192 300.3 193.5 301.4 193.5 302.4 C 194 304 194.6 306 195.1 309.1 C 194 309.1 192.5 309.7 190.9 309.7 C 187.8 309.7 185.7 307.6 183.2 306 C 182.6 306.6 182.1 306.6 182.1 307.6 C 182.1 309.1 183.7 319 183.7 320 C 183.7 325.2 183.7 325.7 181.6 331.5 L 182.6 332.5 C 185.7 328.3 188.3 323.7 192.5 320 C 194.6 318 199.8 317.4 202.4 316.9 C 205.5 314.9 206 311.7 209.1 311.7 C 210.1 311.7 215.8 313.3 219.5 313.8 C 218.4 314.3 217.4 314.3 216.4 314.3 C 216.4 314.3 215.8 313.8 215.8 315.4 C 215.8 316.4 217.4 318 217.4 319 C 217.4 320.6 216.9 322.1 216.4 322.6 C 214.8 324.2 211.2 325.7 209.6 325.7 C 208.6 325.7 205.5 324.2 203.9 322.1 C 202.9 321.1 203.4 319.5 202.4 318 C 192.5 315.9 185.7 329.9 180.6 337.7 C 181.1 338.2 180.6 338.7 182.1 338.7 C 183.2 338.7 186.3 337.7 188.3 336.6 L 187.3 337.7 C 187.8 338.2 188.3 338.7 188.3 339.2 C 186.8 339.8 184.7 339.8 182.1 340.3 C 182.1 340.8 181.6 340.8 181.1 341.3 C 182.6 342.3 184.7 342.9 186.3 342.9 C 185.2 342.9 184.2 343.4 183.2 343.9 C 184.7 346 189.9 346 192.5 346.5 C 187.8 346.5 183.2 346 176.9 344.9 L 175.9 346 C 181.6 351.2 179 348.6 184.2 348.6 L 186.8 348.6 C 186.8 349.1 185.7 348.6 185.7 349.6 C 185.7 351.2 186.8 351.2 186.8 351.7 L 183.7 351.7 C 181.6 350.6 179 349.6 176.9 348.1 C 174.9 352.2 176.9 355.8 172.8 355.8 C 171.7 355.8 170.7 354.8 169.1 354.8 C 165 354.8 159.3 377.1 159.3 378.7 C 159.3 385.4 134 398 134 398 C 134.5 399.6 133.5 390 134 391 ZM 186.3 281.7 C 186.3 281.1 186.3 280.6 186.8 280.6 C 186.8 280.6 186.3 281.1 186.3 281.7 ZM 169.7 283.2 C 169.7 283.2 169.1 283.7 169.1 283.2 L 169.7 283.2 ZM 194 342.9 C 194 342.9 193.5 343.4 193.5 343.9 C 192.5 343.4 191.5 343.4 190.9 342.9 L 194 342.9 Z" fill="url(#gradient9)"/>
		<path id="Sword" d="M 123 0 C 124.5 3.6 125 7.8 127.6 11.9 C 128.2 13 130.7 14 131.8 16.1 C 132.3 16.6 132.8 18.2 133.3 19.2 C 128.7 21.3 128.7 24.9 128.2 28.5 C 126.6 28 125 28.5 125 30.1 C 125 31.6 126.1 34.2 126.1 35.3 C 126.1 36.8 125 40.5 125 42 C 125 43.1 126.1 44.6 126.1 45.6 C 126.1 47.2 125 47.2 125 48.8 C 125 49.8 126.1 49.8 126.1 50.8 C 126.1 52.4 125 53.4 125 54.5 C 125 56 126.1 59.7 126.1 60.7 C 126.1 62.2 125 65.9 125 66.9 C 125 68.5 126.1 72.1 126.1 73.7 C 126.1 74.7 125 78.8 125 79.9 C 125 81.4 126.1 85.1 126.1 86.1 C 126.1 87.7 125 90.3 125 91.3 C 125 92.8 129.7 96.5 132.8 99.6 C 133.3 99.1 133.9 97.5 135.4 97.5 C 136.5 97.5 137.5 98 137.5 98 C 137.5 100.6 137.5 103.2 137 105.8 C 137 105.8 136.5 106.3 138 106.3 C 139.1 106.3 141.6 104.3 143.7 103.7 C 145.8 100.6 149.9 96.5 153.1 92.8 C 153.6 95.4 153.1 99.1 153.1 100.1 C 153.1 108.4 153.6 101.7 159.3 110.5 C 159.8 111 161.9 111.5 162.9 112 C 164 112.6 165.5 114.6 167.1 116.2 C 167.1 116.2 176.9 129.7 176.9 132.3 C 176.9 133.3 175.9 133.8 175.9 134.9 C 175.9 136.4 178.5 138.5 180 140.6 C 181.1 141.6 181.6 144.2 182.1 145.8 L 144.2 136.9 C 146.3 133.8 144.2 129.7 144.2 126.6 L 143.2 125.5 C 139.6 128.6 135.9 130.7 132.3 132.8 L 132.3 143.7 C 132.8 144.2 133.3 144.2 133.9 144.2 L 133.9 147.8 L 130.7 147.8 L 130.7 153 L 131.7 166.7 C 131.7 166.7 138.1 177.1 137.3 178 C 137.1 178.3 136.7 203.8 136.3 231.3 C 102.7 253.7 130.8 260.8 130.7 273 C 130.5 287.6 135.4 298.3 135.4 298.8 L 135.4 349.6 C 134.4 351.7 132.8 352.7 131.3 353.2 C 133.3 361 135.4 363.1 135.4 370.9 C 135.4 371.9 135.4 375 134.9 377.1 C 134.9 378.1 133.3 379.2 133.3 380.7 C 133.3 381.8 134.4 383.3 134.9 384.4 L 134.4 410.8 C 134.9 412.4 135.4 411.9 135.4 413.4 L 135.4 447.6 C 134.9 457.5 133.3 467.9 128.7 478.8 C 128.2 479.8 128.7 482.4 128.2 484 C 125 493.3 121.9 503.1 118.3 513 C 113.6 504.7 109.5 492.3 107.9 483.4 C 107.9 481.4 107.9 478.2 106.9 476.7 C 106.4 474.6 103.8 473.1 103.3 471 C 101.7 466.3 100.7 457 100.7 455.9 C 100.7 454.4 103.3 446.6 103.3 445 C 103.3 444 100.1 437.8 100.1 436.8 L 100.1 416.5 C 100.7 415 101.7 412.9 103.3 410.8 C 103.3 410.8 101.8 373.3 100.6 341.7 C 100.5 338.6 117.4 314.9 117.3 312 C 114.7 311.7 130.6 303.3 123.7 300.3 C 118.4 298.1 99 299.2 99 298.7 C 98.8 285.3 99.6 269.5 100.1 268.7 C 100.7 255.2 101.2 251.6 101.2 250 C 101.2 249 100.1 245.9 100.1 244.3 C 100.1 243.3 103.3 236.5 103.3 235.5 C 103.3 233.9 100.7 232.9 100.1 231.3 C 99.6 230.3 100.1 228.2 100.1 227.2 C 100.1 225.6 100.1 226.2 100.1 225.6 C 100.1 223.6 101.7 220.4 101.7 219.4 C 101.7 217.9 100.1 215.8 100.1 214.7 C 100.1 213.2 101.2 208 101.2 207 C 101.2 205.4 100.1 204.4 100.1 203.3 L 100.1 192.4 C 97.5 188.8 96 184.1 97 179 C 106.7 163.3 104.8 153 104.8 153 L 104.8 147.8 L 101.7 147.8 L 101.7 144.2 C 102.2 144.2 102.7 144.2 103.3 143.7 L 103.3 132.8 C 99.6 130.7 96 128.6 92.4 125.5 C 91.3 128.1 90.3 130.7 90.3 133.3 C 90.3 134.3 90.3 135.9 89.8 136.4 C 86.6 138 82.5 139 78.9 139.5 C 77.3 140.1 75.2 139 73.7 139.5 C 72.1 139.5 70 141.6 68.5 142.1 C 64.3 143.7 56.6 145.8 55 145.8 L 53.4 145.8 C 55.5 141.1 56.6 135.9 59.1 131.8 C 59.7 130.2 61.7 129.7 62.3 128.6 C 62.3 128.1 62.3 128.6 62.3 127.1 C 62.3 119.8 83 103.2 83 103.2 C 83 102.2 82.5 97 82 92.8 C 87.7 98 94.4 107.4 101.2 108.4 L 102.2 107.4 C 101.2 106.3 99.6 105.8 98.1 105.3 L 98.1 98 C 98.6 98 99.1 97.5 100.7 97.5 C 101.7 97.5 102.2 98.6 103.3 98.6 C 104.8 98.6 107.4 94.9 107.4 92.8 L 110 92.8 C 110 92.8 110.5 92.8 110.5 91.8 C 110.5 90.3 109.5 87.7 109.5 86.1 C 109.5 85.1 110 78.3 110 77.3 C 110 75.7 111 76.8 111 75.2 C 111 74.2 109.5 73.1 109.5 72.1 C 109.5 70.5 110.5 68.5 110.5 67.4 C 110.5 65.9 109.5 62.2 109.5 61.2 C 109.5 59.7 110.5 55.5 110.5 54.5 C 110.5 52.9 109.5 49.3 109.5 48.2 C 109.5 46.7 110.5 43.1 110.5 42 C 110.5 40.5 109.5 36.8 109.5 35.8 C 109.5 34.2 110.5 31.6 110.5 30.1 C 110.5 28.5 108.4 28 107.4 28.5 C 107.4 27.5 106.9 26.5 106.4 25.4 C 105.8 24.9 105.8 22.8 105.3 22.3 C 104.8 20.7 102.2 20.2 102.2 18.7 C 102.2 17.1 109.5 9.3 110.5 6.7 C 111 6.2 110.5 5.2 110.5 4.7 C 111 3.1 112.1 1.6 112.6 0 L 123 0 ZM 130.2 17.6 C 128.7 20.7 125.6 22.3 125.6 25.9 C 123 25.9 120.4 25.4 117.8 25.9 C 116.2 25.9 115.2 27.5 114.1 27.5 C 112.6 27.5 112.6 25.9 109.5 25.9 C 109.5 23.9 105.8 18.2 105.8 17.6 C 105.8 17.1 110.5 11.4 113.1 8.3 C 113.1 7.8 113.6 7.3 113.6 6.2 C 113.6 5.7 113.1 4.7 113.6 3.1 L 117.3 3.1 C 126.6 3.1 119.3 8.8 130.2 17.6 ZM 123.5 35.3 C 123.5 38.9 123 37.9 119.9 42 C 123 44.1 123.5 46.2 123.5 48.2 C 123.5 50.3 123 52.4 119.9 54.5 C 124 57.1 123.5 59.1 123.5 60.7 C 123.5 63.3 124 63.3 120.4 66.9 C 120.4 67.4 121.4 68.5 121.9 69.5 C 123 70 123.5 72.1 123.5 73.7 C 123.5 76.2 123 76.2 119.9 79.9 C 124 82.5 123.5 84.5 123.5 86.1 C 123.5 90.8 121.9 92.3 117.8 92.3 C 112.6 92.3 112.1 88.7 112.1 86.1 C 112.1 83.5 111.6 83.5 115.2 80.4 C 113.1 75.2 112.1 77.3 112.1 73.7 C 112.1 70.5 111.6 71.1 115.2 67.4 C 113.1 62.8 112.1 63.8 112.1 60.7 C 112.1 58.1 111.6 58.1 115.2 55 C 114.7 53.9 112.6 52.4 112.1 50.8 C 111.6 49.8 112.1 48.8 112.1 47.7 C 112.1 45.6 113.1 43.1 115.2 42 C 113.1 36.8 112.1 38.9 112.1 35.3 C 112.1 31.6 114.1 29.6 117.8 29.6 C 122.4 29.6 123.5 32.7 123.5 35.3 ZM 121.4 35.3 C 120.9 36.8 118.8 39.4 117.8 39.4 C 116.2 39.4 114.1 36.8 114.1 35.8 C 114.1 34.2 116.2 31.6 117.3 31.6 C 118.8 31.6 119.9 34.8 121.4 35.3 ZM 121.4 48.2 C 121.4 49.3 119.3 50.8 117.8 52.4 C 116.7 51.4 114.1 49.3 114.1 48.2 C 114.1 46.7 116.2 44.6 117.8 44.6 C 118.8 44.6 121.4 46.7 121.4 48.2 ZM 121.4 61.2 C 121.4 62.2 119.3 63.3 117.8 64.8 C 116.7 63.8 115.2 62.8 114.1 61.7 C 114.1 61.2 115.2 60.7 115.7 60.2 C 116.2 59.1 116.2 58.1 117.3 57.1 C 118.8 57.6 121.4 59.7 121.4 61.2 ZM 121.4 73.7 C 120.4 74.7 118.8 77.3 117.8 77.3 C 116.2 77.3 114.1 74.7 114.1 73.7 C 114.1 72.1 116.2 71.1 117.8 69.5 C 118.8 70.5 120.4 72.1 121.4 73.7 ZM 121.4 86.6 C 121.4 87.7 118.8 89.7 117.3 89.7 C 116.2 89.7 114.1 87.7 114.1 86.1 C 114.1 85.1 116.2 82.5 117.8 82.5 C 118.8 82.5 121.4 85.1 121.4 86.6 ZM 125 98.6 C 127.6 98.6 130.7 100.6 133.9 101.1 L 133.9 102.7 C 130.2 103.7 126.6 110 125 113.6 C 125.6 114.1 125 114.6 126.1 114.6 C 128.7 114.6 140.6 108.4 142.2 107.9 C 142.7 107.4 144.8 107.9 146.3 106.9 C 147.4 106.3 147.9 104.3 148.9 102.7 C 149.4 103.7 148.9 104.8 148.9 105.8 C 150.5 106.9 152.5 107.9 154.6 109.4 C 155.7 110 155.7 112 157.2 113.1 C 157.7 114.1 159.8 114.6 160.8 115.2 C 166.5 119.3 170.2 126 172.3 131.8 C 172.8 132.3 172.3 133.8 172.3 135.4 C 172.3 136.4 173.8 138.5 174.9 140.1 C 166.5 138.5 157.7 136.4 148.9 134.3 C 148.9 129.7 147.4 122.4 144.2 118.3 C 141.6 120.3 137 126.6 133.3 128.1 C 132.3 127.1 131.8 125.5 130.7 124 C 129.7 125.5 128.7 127.1 128.7 128.6 L 128.7 143.7 L 123.5 143.7 L 123.5 147.3 C 124.5 148.3 126.1 148.3 127.6 148.3 L 127.6 154.6 C 127.6 154.6 127.6 155.1 126.6 155.1 C 125 155.1 123 153.5 120.9 153.5 C 123 155.6 125 157.7 126.6 158.2 C 127.6 161.3 127.1 164.4 127.6 167.5 C 128.7 171.7 132.8 172.7 134.4 177.4 C 134.9 178.4 134.9 180.5 134.9 181.5 C 134.9 188.3 131.8 188.3 131.8 193.5 L 131.8 204.4 C 131.3 205.9 130.2 207 129.7 208 C 129.7 208.5 130.7 209 131.3 209.6 C 131.8 210.1 131.8 210.6 131.8 211.6 C 131.8 213.2 131.8 213.7 131.3 214.2 C 131.3 214.7 129.7 214.7 129.7 216.3 C 129.7 217.3 130.7 218.9 131.3 219.9 L 104.3 261.4 C 103.8 260.9 103.8 260.4 103.8 258.8 C 103.8 257.8 104.8 251.1 104.8 250 C 104.8 248.5 103.8 245.9 103.8 244.3 C 103.8 241.2 110 233.9 110.5 233.4 C 113.6 229.3 117.3 225.6 119.9 221.5 L 118.8 220.4 C 115.2 223 111 224.1 107.9 226.2 C 106.4 226.7 105.8 228.7 104.3 229.8 C 103.8 228.7 103.8 227.2 103.8 226.2 C 103.8 224.1 105.8 219.4 105.8 218.4 C 105.8 216.8 104.3 216.8 103.8 216.3 C 103.8 215.8 103.8 215.3 103.8 214.2 C 103.8 212.7 104.8 209 104.8 208 C 104.8 206.4 104.3 197.6 103.3 193 C 101.7 184.1 100.7 186.7 100.7 181.5 C 100.7 180 100.7 180 100.7 179 C 102.2 173.8 108.4 169.6 107.9 164.9 C 108.4 164.4 107.9 162.9 108.4 162.4 C 109 160.8 111 159.8 112.6 158.2 C 111.6 157.2 110 156.6 108.4 155.6 L 108.4 148.3 C 109.5 148.3 111 148.3 112.1 147.3 L 112.1 143.7 L 106.9 143.7 L 106.9 127.6 C 106.4 127.1 105.8 125.5 105.3 124.5 C 104.3 125 103.8 126.6 102.7 128.1 C 102.2 127.6 101.7 126.6 101.2 125.5 C 94.4 126 94.4 121.4 91.3 118.8 C 88.7 121.4 88.2 125.5 87.2 129.2 C 86.6 130.2 87.2 132.8 86.1 133.8 C 77.8 136.4 68.5 138.5 59.7 141.1 C 60.2 129.7 66.9 132.3 66.9 130.2 C 66.9 129.2 65.9 128.1 65.9 127.1 C 65.9 124.5 75.8 113.6 77.8 112 C 80.4 110 83.5 107.9 86.1 106.3 C 86.6 105.3 86.6 103.2 86.1 102.7 C 88.2 103.7 92.9 108.9 94.9 110.5 C 99.6 111.5 104.8 113.6 109.5 114.6 L 110.5 113.6 C 109 110.5 106.4 104.8 101.7 102.7 L 101.7 101.1 C 104.8 100.6 110 98 111.6 98 C 112.6 98 113.1 97.5 125 98.6 ZM 124.5 120.9 C 124.5 122.4 120.4 126.6 119.3 129.7 C 118.3 131.8 119.9 134.9 117.8 137.5 C 117.8 136.9 116.7 135.9 116.2 134.9 C 115.7 133.3 116.2 130.7 115.7 129.7 C 114.7 126.6 111.6 122.4 111.6 121.4 C 111.6 119.8 115.2 114.1 117.8 110.5 C 119.9 113.6 124.5 119.8 124.5 120.9 ZM 121.9 120.9 C 121.9 122.4 119.3 125.5 118.3 127.6 C 116.7 126 114.1 122.4 114.1 121.4 C 114.1 119.8 116.2 117.2 117.3 115.2 C 118.8 115.7 121.9 119.8 121.9 120.9 ZM 120.4 120.9 C 120.4 122.4 118.8 124 117.8 125.5 C 116.7 124 115.2 122.4 115.2 120.9 C 115.2 119.8 116.7 118.3 117.8 117.2 C 118.8 118.3 120.4 119.8 120.4 120.9 ZM 116.7 178.4 L 107.9 178.4 L 106.9 179.5 C 108.4 181.5 110 183.6 111 185.7 L 104.8 185.2 L 107.9 185.2 L 109 184.1 C 107.4 182.1 105.8 180 104.8 177.9 L 115.2 177.9 C 116.2 175.8 116.2 173.8 116.7 172.2 L 116.7 178.4 ZM 120.4 177.9 L 130.7 177.9 C 129.7 180 128.2 182.1 126.6 184.1 C 128.2 185.2 129.7 185.2 130.7 185.7 L 124.5 185.7 C 125.6 184.1 127.1 182.1 128.7 180 L 128.7 178.4 L 118.8 178.4 C 118.8 178.4 118.8 172.2 119.3 172.2 C 119.3 173.2 118.3 175.8 120.4 177.9 ZM 135.9 193.5 C 137.5 188.8 135.9 193.5 135.9 193.5 ZM 116.7 180.5 C 115.7 182.1 114.1 184.1 113.1 185.7 C 112.1 184.1 110.5 182.1 110 180.5 L 116.7 180.5 ZM 126.1 180.5 C 125 182.1 123.5 184.1 122.4 185.7 C 121.4 184.1 119.9 182.1 118.8 180.5 L 126.1 180.5 ZM 121.4 187.3 C 120.4 188.8 118.8 190.9 117.8 192.4 C 116.7 190.9 115.2 188.8 114.7 187.3 L 121.4 187.3 ZM 127.7 268 C 128.2 272.7 130 279 130 280 C 130 281.6 130.9 294 130.3 294 C 125.7 296.6 123.2 294.9 118 297 L 104 297 C 106.1 293.4 103.3 284.1 103.3 280 C 103.3 279 107 272.2 107 271.7 C 111.7 270.1 116 265.7 120.7 263.7 L 127.7 268 ZM 132.3 305.5 L 132.3 347 C 126.1 344.9 113.1 342.3 113.1 340.8 C 113.1 346.5 132.3 353.8 132.3 370.9 C 132.3 371.9 132.3 375.5 130.7 377.6 C 129.7 379.2 125 379.7 125 380.7 C 125 383.8 132.3 386.4 132.3 390.6 C 132.3 391.6 131.8 393.2 131.8 403 C 131.3 405.6 130.2 409.3 130.2 410.8 C 130.2 411.9 131.8 412.4 131.8 413.9 L 131.8 452.8 C 131.3 458.5 130.2 464.2 128.7 469.9 C 128.2 472.5 126.1 474.6 125 477.7 C 124.5 478.8 125 481.4 124.5 483.4 C 123 489.7 120.4 496.4 117.8 503.1 L 112.1 486.5 C 113.1 484 115.7 479.8 115.7 478.8 C 115.7 477.2 109.5 473.6 107.4 471 C 104.3 466.8 104.3 458 104.3 456.5 C 104.3 455.4 106.9 449.7 109 447.1 C 110 445 112.1 444.5 113.6 443 C 112.6 442.5 104.3 438.8 104.3 436.2 L 104.3 416.5 C 106.4 416 108.4 415 110.5 413.4 C 108.4 410.3 104.3 404.6 104.3 403.6 L 104.3 389.5 C 105.3 387.5 107.4 383.8 107.4 382.3 C 107.4 381.2 104.3 373.5 104.3 372.4 C 104.3 370.9 104.8 362.6 104.8 361.5 C 104.8 360 110 356.9 113.1 353.8 C 110 350.6 105.3 348.6 104.8 345.5 L 131.3 305.5 L 132.3 305.5 ZM 115.7 382.8 C 118.3 378.7 124.5 374 129.7 370.9 C 128.2 375.5 120.4 380.7 115.7 382.8 ZM 115.2 391.1 C 114.1 388.5 117.8 385.4 120.4 384.9 C 118.8 387 117.3 389 115.2 391.1 ZM 126.1 466.3 C 125 466.8 123.5 468.4 122.4 469.4 C 121.9 465.8 123.5 464.8 125 463.2 C 125.6 464.2 125.6 465.3 126.1 466.3 Z" fill="url(#gradient10)"/>
		<path id="Sword2" d="M 130.2 17.6 C 128.7 20.7 125.6 22.3 125.6 25.9 C 123 25.9 120.4 25.4 117.8 25.9 C 116.2 25.9 115.2 27.5 114.1 27.5 C 112.6 27.5 112.6 25.9 109.5 25.9 C 109.5 23.9 105.8 18.2 105.8 17.6 C 105.8 17.1 110.5 11.4 113.1 8.3 C 113.1 7.8 113.6 7.3 113.6 6.2 C 113.6 5.7 113.1 4.7 113.6 3.1 L 117.3 3.1 C 126.6 3.1 119.3 8.8 130.2 17.6 ZM 123.5 35.3 C 123.5 38.9 123 37.9 119.9 42 C 123 44.1 123.5 46.2 123.5 48.2 C 123.5 50.3 123 52.4 119.9 54.5 C 124 57.1 123.5 59.1 123.5 60.7 C 123.5 63.3 124 63.3 120.4 66.9 C 120.4 67.4 121.4 68.5 121.9 69.5 C 123 70 123.5 72.1 123.5 73.7 C 123.5 76.2 123 76.2 119.9 79.9 C 124 82.5 123.5 84.5 123.5 86.1 C 123.5 90.8 121.9 92.3 117.8 92.3 C 112.6 92.3 112.1 88.7 112.1 86.1 C 112.1 83.5 111.6 83.5 115.2 80.4 C 113.1 75.2 112.1 77.3 112.1 73.7 C 112.1 70.5 111.6 71.1 115.2 67.4 C 113.1 62.8 112.1 63.8 112.1 60.7 C 112.1 58.1 111.6 58.1 115.2 55 C 114.7 53.9 112.6 52.4 112.1 50.8 C 111.6 49.8 112.1 48.8 112.1 47.7 C 112.1 45.6 113.1 43.1 115.2 42 C 113.1 36.8 112.1 38.9 112.1 35.3 C 112.1 31.6 114.1 29.6 117.8 29.6 C 122.4 29.6 123.5 32.7 123.5 35.3 ZM 121.4 35.3 C 120.9 36.8 118.8 39.4 117.8 39.4 C 116.2 39.4 114.1 36.8 114.1 35.8 C 114.1 34.2 116.2 31.6 117.3 31.6 C 118.8 31.6 119.9 34.8 121.4 35.3 ZM 121.4 48.2 C 121.4 49.3 119.3 50.8 117.8 52.4 C 116.7 51.4 114.1 49.3 114.1 48.2 C 114.1 46.7 116.2 44.6 117.8 44.6 C 118.8 44.6 121.4 46.7 121.4 48.2 ZM 121.4 61.2 C 121.4 62.2 119.3 63.3 117.8 64.8 C 116.7 63.8 115.2 62.8 114.1 61.7 C 114.1 61.2 115.2 60.7 115.7 60.2 C 116.2 59.1 116.2 58.1 117.3 57.1 C 118.8 57.6 121.4 59.7 121.4 61.2 ZM 121.4 73.7 C 120.4 74.7 118.8 77.3 117.8 77.3 C 116.2 77.3 114.1 74.7 114.1 73.7 C 114.1 72.1 116.2 71.1 117.8 69.5 C 118.8 70.5 120.4 72.1 121.4 73.7 ZM 121.4 86.6 C 121.4 87.7 118.8 89.7 117.3 89.7 C 116.2 89.7 114.1 87.7 114.1 86.1 C 114.1 85.1 116.2 82.5 117.8 82.5 C 118.8 82.5 121.4 85.1 121.4 86.6 ZM 125 98.6 C 127.6 98.6 130.7 100.6 133.9 101.1 L 133.9 102.7 C 130.2 103.7 126.6 110 125 113.6 C 125.6 114.1 125 114.6 126.1 114.6 C 128.7 114.6 140.6 108.4 142.2 107.9 C 142.7 107.4 144.8 107.9 146.3 106.9 C 147.4 106.3 147.9 104.3 148.9 102.7 C 149.4 103.7 148.9 104.8 148.9 105.8 C 150.5 106.9 152.5 107.9 154.6 109.4 C 155.7 110 155.7 112 157.2 113.1 C 157.7 114.1 159.8 114.6 160.8 115.2 C 166.5 119.3 170.2 126 172.3 131.8 C 172.8 132.3 172.3 133.8 172.3 135.4 C 172.3 136.4 173.8 138.5 174.9 140.1 C 166.5 138.5 157.7 136.4 148.9 134.3 C 148.9 129.7 147.4 122.4 144.2 118.3 C 141.6 120.3 137 126.6 133.3 128.1 C 132.3 127.1 131.8 125.5 130.7 124 C 129.7 125.5 128.7 127.1 128.7 128.6 L 128.7 143.7 L 123.5 143.7 L 123.5 147.3 C 124.5 148.3 126.1 148.3 127.6 148.3 L 127.6 154.6 C 127.6 154.6 127.6 155.1 126.6 155.1 C 125 155.1 123 153.5 120.9 153.5 C 123 155.6 125 157.7 126.6 158.2 C 127.6 161.3 127.1 164.4 127.6 167.5 C 128.7 171.7 132.8 172.7 134.4 177.4 C 134.9 178.4 134.9 180.5 134.9 181.5 C 134.9 188.3 131.8 188.3 131.8 193.5 L 131.8 204.4 C 131.3 205.9 130.2 207 129.7 208 C 129.7 208.5 130.7 209 131.3 209.6 C 131.8 210.1 131.8 210.6 131.8 211.6 C 131.8 213.2 131.8 213.7 131.3 214.2 C 131.3 214.7 129.7 214.7 129.7 216.3 C 129.7 217.3 130.7 218.9 131.3 219.9 L 104.3 261.4 C 103.8 260.9 103.8 260.4 103.8 258.8 C 103.8 257.8 104.8 251.1 104.8 250 C 104.8 248.5 103.8 245.9 103.8 244.3 C 103.8 241.2 110 233.9 110.5 233.4 C 113.6 229.3 117.3 225.6 119.9 221.5 L 118.8 220.4 C 115.2 223 111 224.1 107.9 226.2 C 106.4 226.7 105.8 228.7 104.3 229.8 C 103.8 228.7 103.8 227.2 103.8 226.2 C 103.8 224.1 105.8 219.4 105.8 218.4 C 105.8 216.8 104.3 216.8 103.8 216.3 C 103.8 215.8 103.8 215.3 103.8 214.2 C 103.8 212.7 104.8 209 104.8 208 C 104.8 206.4 104.3 197.6 103.3 193 C 101.7 184.1 100.7 186.7 100.7 181.5 C 100.7 180 100.7 180 100.7 179 C 102.2 173.8 108.4 169.6 107.9 164.9 C 108.4 164.4 107.9 162.9 108.4 162.4 C 109 160.8 111 159.8 112.6 158.2 C 111.6 157.2 110 156.6 108.4 155.6 L 108.4 148.3 C 109.5 148.3 111 148.3 112.1 147.3 L 112.1 143.7 L 106.9 143.7 L 106.9 127.6 C 106.4 127.1 105.8 125.5 105.3 124.5 C 104.3 125 103.8 126.6 102.7 128.1 C 102.2 127.6 101.7 126.6 101.2 125.5 C 94.4 126 94.4 121.4 91.3 118.8 C 88.7 121.4 88.2 125.5 87.2 129.2 C 86.6 130.2 87.2 132.8 86.1 133.8 C 77.8 136.4 68.5 138.5 59.7 141.1 C 60.2 129.7 66.9 132.3 66.9 130.2 C 66.9 129.2 65.9 128.1 65.9 127.1 C 65.9 124.5 75.8 113.6 77.8 112 C 80.4 110 83.5 107.9 86.1 106.3 C 86.6 105.3 86.6 103.2 86.1 102.7 C 88.2 103.7 92.9 108.9 94.9 110.5 C 99.6 111.5 104.8 113.6 109.5 114.6 L 110.5 113.6 C 109 110.5 106.4 104.8 101.7 102.7 L 101.7 101.1 C 104.8 100.6 110 98 111.6 98 C 112.6 98 113.1 97.5 125 98.6 ZM 124.5 120.9 C 124.5 122.4 124.5 119.8 124.5 120.9 ZM 118.3 127.6 C 116.7 126 119.3 125.5 118.3 127.6 ZM 120.4 120.9 C 120.4 122.4 120.4 119.8 120.4 120.9 ZM 116.7 172.2 C 116.7 172.2 116.2 173.8 116.7 172.2 ZM 119.3 172.2 C 119.3 173.2 118.8 172.2 119.3 172.2 ZM 116.7 180.5 C 115.7 182.1 116.7 180.5 116.7 180.5 ZM 126.1 180.5 C 125 182.1 126.1 180.5 126.1 180.5 ZM 121.4 187.3 C 120.4 188.8 121.4 187.3 121.4 187.3 ZM 127.7 268 C 128.2 272.7 130 279 130 280 C 130 281.6 130.9 294 130.3 294 C 125.7 296.6 123.2 294.9 118 297 L 104 297 C 106.1 293.4 103.3 284.1 103.3 280 C 103.3 279 107 272.2 107 271.7 C 111.7 270.1 116 265.7 120.7 263.7 L 127.7 268 ZM 132.3 305.5 L 132.3 347 C 126.1 344.9 113.1 342.3 113.1 340.8 C 113.1 346.5 132.3 353.8 132.3 370.9 C 132.3 371.9 132.3 375.5 130.7 377.6 C 129.7 379.2 125 379.7 125 380.7 C 125 383.8 132.3 386.4 132.3 390.6 C 132.3 391.6 131.8 393.2 131.8 403 C 131.3 405.6 130.2 409.3 130.2 410.8 C 130.2 411.9 131.8 412.4 131.8 413.9 L 131.8 452.8 C 131.3 458.5 130.2 464.2 128.7 469.9 C 128.2 472.5 126.1 474.6 125 477.7 C 124.5 478.8 125 481.4 124.5 483.4 C 123 489.7 120.4 496.4 117.8 503.1 L 112.1 486.5 C 113.1 484 115.7 479.8 115.7 478.8 C 115.7 477.2 109.5 473.6 107.4 471 C 104.3 466.8 104.3 458 104.3 456.5 C 104.3 455.4 106.9 449.7 109 447.1 C 110 445 112.1 444.5 113.6 443 C 112.6 442.5 104.3 438.8 104.3 436.2 L 104.3 416.5 C 106.4 416 108.4 415 110.5 413.4 C 108.4 410.3 104.3 404.6 104.3 403.6 L 104.3 389.5 C 105.3 387.5 107.4 383.8 107.4 382.3 C 107.4 381.2 104.3 373.5 104.3 372.4 C 104.3 370.9 104.8 362.6 104.8 361.5 C 104.8 360 110 356.9 113.1 353.8 C 110 350.6 105.3 348.6 104.8 345.5 L 131.3 305.5 L 132.3 305.5 ZM 115.7 382.8 C 118.3 378.7 124.5 374 129.7 370.9 C 128.2 375.5 120.4 380.7 115.7 382.8 ZM 115.2 391.1 C 114.1 388.5 117.8 385.4 120.4 384.9 C 118.8 387 117.3 389 115.2 391.1 ZM 126.1 466.3 C 125 466.8 123.5 468.4 122.4 469.4 C 121.9 465.8 123.5 464.8 125 463.2 C 125.6 464.2 125.6 465.3 126.1 466.3 Z" fill="#ffffff"/>
		<path id="Sword3" d="M 116.7 178.4 L 107.9 178.4 L 106.9 179.5 C 108.4 181.5 110 183.6 111 185.7 L 104.8 185.2 L 107.9 185.2 L 109 184.1 C 107.4 182.1 105.8 180 104.8 177.9 L 115.2 177.9 C 116.2 175.8 116.2 173.8 116.7 172.2 L 116.7 178.4 ZM 120.4 177.9 L 130.7 177.9 C 129.7 180 128.2 182.1 126.6 184.1 C 128.2 185.2 129.7 185.2 130.7 185.7 L 124.5 185.7 C 125.6 184.1 127.1 182.1 128.7 180 L 128.7 178.4 L 118.8 178.4 C 118.8 178.4 118.8 172.2 119.3 172.2 C 119.3 173.2 118.3 175.8 120.4 177.9 ZM 116.7 180.5 C 115.7 182.1 114.1 184.1 113.1 185.7 C 112.1 184.1 110.5 182.1 110 180.5 L 116.7 180.5 ZM 126.1 180.5 C 125 182.1 123.5 184.1 122.4 185.7 C 121.4 184.1 119.9 182.1 118.8 180.5 L 126.1 180.5 ZM 121.4 187.3 C 120.4 188.8 118.8 190.9 117.8 192.4 C 116.7 190.9 115.2 188.8 114.7 187.3 L 121.4 187.3 Z" fill="#5f99c8"/>
		<path id="Sword4" d="M 124.5 120.9 C 124.5 122.4 120.4 126.6 119.3 129.7 C 118.3 131.8 119.9 134.9 117.8 137.5 C 117.8 136.9 116.7 135.9 116.2 134.9 C 115.7 133.3 116.2 130.7 115.7 129.7 C 114.7 126.6 111.6 122.4 111.6 121.4 C 111.6 119.8 115.2 114.1 117.8 110.5 C 119.9 113.6 124.5 119.8 124.5 120.9 ZM 121.9 120.9 C 121.9 122.4 121.9 119.8 121.9 120.9 ZM 117.8 125.5 C 116.7 124 118.8 124 117.8 125.5 Z" fill="#3b7eb8"/>
		<path id="Sword5" d="M 124.5 120.9 C 124.5 122.4 124.5 119.8 124.5 120.9 ZM 121.9 120.9 C 121.9 122.4 119.3 125.5 118.3 127.6 C 116.7 126 114.1 122.4 114.1 121.4 C 114.1 119.8 116.2 117.2 117.3 115.2 C 118.8 115.7 121.9 119.8 121.9 120.9 ZM 120.4 120.9 C 120.4 122.4 118.8 124 117.8 125.5 C 116.7 124 115.2 122.4 115.2 120.9 C 115.2 119.8 116.7 118.3 117.8 117.2 C 118.8 118.3 120.4 119.8 120.4 120.9 Z" fill="#ffffff"/>
		<path id="Sword6" d="M 124.5 120.9 C 124.5 122.4 124.5 119.8 124.5 120.9 ZM 121.9 120.9 C 121.9 122.4 121.9 119.8 121.9 120.9 ZM 120.4 120.9 C 120.4 122.4 118.8 124 117.8 125.5 C 116.7 124 115.2 122.4 115.2 120.9 C 115.2 119.8 116.7 118.3 117.8 117.2 C 118.8 118.3 120.4 119.8 120.4 120.9 Z" fill="#3b7eb8"/>
		<path id="Sword7" d="M 123.5 35.3 C 123.5 38.9 123 37.9 119.9 42 C 123 44.1 123.5 46.2 123.5 48.2 C 123.5 50.3 123 52.4 119.9 54.5 C 124 57.1 123.5 59.1 123.5 60.7 C 123.5 63.3 124 63.3 120.4 66.9 C 120.4 67.4 121.4 68.5 121.9 69.5 C 123 70 123.5 72.1 123.5 73.7 C 123.5 76.2 123 76.2 119.9 79.9 C 124 82.5 123.5 84.5 123.5 86.1 C 123.5 90.8 121.9 92.3 117.8 92.3 C 112.6 92.3 112.1 88.7 112.1 86.1 C 112.1 83.5 111.6 83.5 115.2 80.4 C 113.1 75.2 112.1 77.3 112.1 73.7 C 112.1 70.5 111.6 71.1 115.2 67.4 C 113.1 62.8 112.1 63.8 112.1 60.7 C 112.1 58.1 111.6 58.1 115.2 55 C 114.7 53.9 112.6 52.4 112.1 50.8 C 111.6 49.8 112.1 48.8 112.1 47.7 C 112.1 45.6 113.1 43.1 115.2 42 C 113.1 36.8 112.1 38.9 112.1 35.3 C 112.1 31.6 114.1 29.6 117.8 29.6 C 122.4 29.6 123.5 32.7 123.5 35.3 ZM 121.4 35.3 C 120.9 36.8 118.8 39.4 117.8 39.4 C 116.2 39.4 114.1 36.8 114.1 35.8 C 114.1 34.2 116.2 31.6 117.3 31.6 C 118.8 31.6 119.9 34.8 121.4 35.3 ZM 121.4 48.2 C 121.4 49.3 119.3 50.8 117.8 52.4 C 116.7 51.4 114.1 49.3 114.1 48.2 C 114.1 46.7 116.2 44.6 117.8 44.6 C 118.8 44.6 121.4 46.7 121.4 48.2 ZM 121.4 61.2 C 121.4 62.2 119.3 63.3 117.8 64.8 C 116.7 63.8 115.2 62.8 114.1 61.7 C 114.1 61.2 115.2 60.7 115.7 60.2 C 116.2 59.1 116.2 58.1 117.3 57.1 C 118.8 57.6 121.4 59.7 121.4 61.2 ZM 121.4 73.7 C 120.4 74.7 118.8 77.3 117.8 77.3 C 116.2 77.3 114.1 74.7 114.1 73.7 C 114.1 72.1 116.2 71.1 117.8 69.5 C 118.8 70.5 120.4 72.1 121.4 73.7 ZM 121.4 86.6 C 121.4 87.7 118.8 89.7 117.3 89.7 C 116.2 89.7 114.1 87.7 114.1 86.1 C 114.1 85.1 116.2 82.5 117.8 82.5 C 118.8 82.5 121.4 85.1 121.4 86.6 Z" fill="#ffffff"/>
		<path id="Sword8" d="M 117.8 29.6 C 122.4 29.6 114.1 29.6 117.8 29.6 ZM 121.4 35.3 C 120.9 36.8 118.8 39.4 117.8 39.4 C 116.2 39.4 114.1 36.8 114.1 35.8 C 114.1 34.2 116.2 31.6 117.3 31.6 C 118.8 31.6 119.9 34.8 121.4 35.3 ZM 121.4 48.2 C 121.4 49.3 119.3 50.8 117.8 52.4 C 116.7 51.4 114.1 49.3 114.1 48.2 C 114.1 46.7 116.2 44.6 117.8 44.6 C 118.8 44.6 121.4 46.7 121.4 48.2 ZM 121.4 61.2 C 121.4 62.2 119.3 63.3 117.8 64.8 C 116.7 63.8 115.2 62.8 114.1 61.7 C 114.1 61.2 114.5 59.8 115 59.3 C 115.5 58.2 116.2 58.1 117.3 57.1 C 118.8 57.6 121.4 59.7 121.4 61.2 ZM 121.4 73.7 C 120.4 74.7 118.8 77.3 117.8 77.3 C 116.2 77.3 114.1 74.7 114.1 73.7 C 114.1 72.1 116.2 71.1 117.8 69.5 C 118.8 70.5 120.4 72.1 121.4 73.7 ZM 121.4 86.6 C 121.4 87.7 118.8 89.7 117.3 89.7 C 116.2 89.7 114.1 87.7 114.1 86.1 C 114.1 85.1 116.2 82.5 117.8 82.5 C 118.8 82.5 121.4 85.1 121.4 86.6 Z" fill="url(#gradient11)"/>
		<path id="Z" filter="url(#filter9)" d="M 133.3 259.4 L 133.4 246.5 L 165.1 206.9 L 165.6 204.9 L 167.3 203.9 L 168.9 202.6 L 188.1 179 L 169.3 210.6 L 169.5 218.5 L 167.5 218.5 L 166.3 220.6 L 165.5 221.3 L 165.3 223.5 L 163.4 224.1 L 160.5 227.6 L 159.1 229.9 L 158.5 232 L 157.4 232.8 L 156.1 235.1 L 154.4 236.9 L 153.6 238.6 L 156.8 242.5 L 153.6 242.6 L 151.4 244.3 L 150 246.1 L 150 247.9 L 147.8 248.5 L 147.9 251.4 L 146.5 252.8 L 133.3 259.8 L 133.3 259.4 ZM 110.5 293.3 L 109.6 279.3 L 123.4 273.4 L 125.5 287.4 L 110.6 293.4 L 110.5 293.3 ZM 88.8 312.5 L 46 389.5 L 78.8 349.5 L 81.3 348.8 L 81.5 345.3 L 100.8 321.3 L 101.3 313 L 102.3 310.8 L 102.5 308 L 98.3 308.3 L 97.3 307 L 95 307.5 L 94.5 309.8 L 88.5 312.5 L 88.8 312.5 ZM 0.8 227.5 L 6.5 211.3 L 12.5 211.5 L 14.3 211.5 L 8.5 205.8 L 15.5 186.8 L 17.8 185.5 L 19 182.5 L 20.8 180.8 L 22 179.8 L 19.3 178 L 19.3 175.8 L 27.3 154.3 L 37 154.5 L 38 156.3 L 38.3 158.3 L 37.8 160.3 L 36.5 161.5 L 36.5 163.3 L 38.5 162.5 L 40.3 161.3 L 41.3 159.3 L 41.3 157.8 L 42.8 155.8 L 45 155 L 46.3 154.3 L 54.3 154.3 L 52 157 L 59.8 157.3 L 60.8 156 L 63.3 154.5 L 189.8 154.5 L 191 154.8 L 192.5 155.5 L 195.5 155.3 L 196.8 154.5 L 221.8 154.5 L 222.3 156.3 L 224 157.5 L 226.3 160.3 L 226.8 162.8 L 206.3 192.5 L 203.8 192.3 L 201.5 192.5 L 201.3 194 L 201 196.3 L 200.8 198 L 198.8 198.8 L 197 200.5 L 196.3 201.5 L 195.3 202 L 194.8 203.5 L 195.8 204.5 L 194.8 205.5 L 193.5 206.3 L 194.3 207.8 L 195.3 209.3 L 194.8 211.3 L 193.3 213.3 L 165.3 256.5 L 163.3 257.5 L 162 259.3 L 162.3 261.5 L 89 368.8 L 87 370.3 L 86 369.8 L 85.5 367.8 L 84.3 369.8 L 81.8 368.3 L 81 369.5 L 82.5 370.3 L 82.5 372 L 82.3 372.8 L 81.8 374.8 L 85.3 374.5 L 85.3 376.3 L 79.5 383 L 181.5 383.5 L 203.5 364 L 205 364.8 L 204.8 368.3 L 206 369.8 L 208.8 370 L 210.5 368.8 L 212.3 367 L 214.8 365.5 L 213.8 362.5 L 211.8 362.5 L 211 363 L 210.3 364.8 L 209.8 366.3 L 207.8 360.8 L 235 338 L 213.5 400.5 L 211.3 400 L 209.5 398.8 L 208 397.8 L 206.3 399.5 L 205.8 401.8 L 205.3 403.3 L 204.3 404.3 L 205.8 405.3 L 206.8 406.3 L 208.5 404.8 L 211 404 L 212 404.5 L 212 406.3 L 211.3 409.3 L 209 410.3 L 200.5 410.3 L 198.5 409.8 L 194.3 409.5 L 192.5 409 L 187.8 409 L 186.3 410.5 L 164 410.3 L 162.5 409.3 L 161 408.3 L 158.8 408.8 L 157 409.5 L 155 410.3 L 83 410.3 L 81.5 409.8 L 76.8 409.3 L 75.5 410.5 L 52.8 410.3 L 51.5 409.3 L 47.8 408.3 L 46.5 406.5 L 41.5 406.5 L 39.5 407.3 L 37.5 409.3 L 33 409.3 L 31.8 410.3 L 23.8 410.5 L 23 408.3 L 21.5 408.3 L 20.8 410 L 19.3 410.5 L 3.3 410.5 L 7.3 407.3 L 10.3 407.3 L 10.3 404.3 L 12.5 404 L 12 399.8 L 13.8 397.5 L 47.8 345.3 L 50 344.5 L 51.8 346.5 L 53.3 346.3 L 53.8 343 L 52 338.5 L 75.3 304.5 L 77.5 303.5 L 78.5 303 L 79.3 297.5 L 89.8 285.3 L 91.8 280.3 L 93.8 280.5 L 93.5 277.8 L 132.5 219 L 135.5 217.8 L 136.3 213.8 L 139.5 209 L 144.8 202 L 145.3 200.5 L 147.5 199 L 150.3 194.5 L 151.5 191.5 L 152 189.8 L 153.8 186.3 L 156 183.8 L 158.3 181 L 152.5 181 L 150.8 179.5 L 149.3 179.3 L 147.3 180.3 L 145.5 181.3 L 86.5 180.8 L 84.5 179.8 L 80.5 180.8 L 75.3 179.5 L 73.8 181.3 L 64 181.3 L 52.5 189.8 L 51.8 186.5 L 47 186.8 L 46.3 190.3 L 44.3 191.8 L 43 193.5 L 44 195.5 L 43.5 196.5 L 0.8 227.3 L 0.8 227.5 Z" fill="url(#gradient12)"/>
		<path id="Z2" d="M 133.3 259.4 L 133.4 246.5 L 165.1 206.9 L 165.6 204.9 L 167.3 203.9 L 168.9 202.6 L 188.1 179 L 169.3 210.6 L 169.5 218.5 L 167.5 218.5 L 166.3 220.6 L 165.5 221.3 L 165.3 223.5 L 163.4 224.1 L 160.5 227.6 L 159.1 229.9 L 158.5 232 L 157.4 232.8 L 156.1 235.1 L 154.4 236.9 L 153.6 238.6 L 156.8 242.5 L 153.6 242.6 L 151.4 244.3 L 150 246.1 L 150 247.9 L 147.8 248.5 L 147.9 251.4 L 146.5 252.8 L 133.3 259.8 L 133.3 259.4 ZM 110.5 293.3 L 109.6 279.3 L 123.4 273.4 L 125.5 287.4 L 110.6 293.4 L 110.5 293.3 Z" fill="none"/>
		<path id="Z3" d="M 133.3 259.4 L 133.4 246.5 L 165.1 206.9 L 165.6 204.9 L 167.3 203.9 L 168.9 202.6 L 188.1 179 L 169.3 210.6 L 169.5 218.5 L 167.5 218.5 L 166.3 220.6 L 165.5 221.3 L 165.3 223.5 L 163.4 224.1 L 160.5 227.6 L 159.1 229.9 L 158.5 232 L 157.4 232.8 L 156.1 235.1 L 154.4 236.9 L 153.6 238.6 L 156.8 242.5 L 153.6 242.6 L 151.4 244.3 L 150 246.1 L 150 247.9 L 147.8 248.5 L 147.9 251.4 L 146.5 252.8 L 133.3 259.8 L 133.3 259.4 Z" fill="#343a40"/>
		<path filter="url(#filter10)" d="M 1376.9 280.5 L 1376.9 337.8 L 1377.2 338.1 C 1379.8 335.9 1382.5 333.6 1385.2 331.4 C 1387.2 329.5 1393.5 325.5 1393.5 323.2 C 1393.5 319.8 1388.3 322.8 1388.3 319.9 C 1388.3 319 1388.6 318.5 1389.3 318.5 L 1409.6 318.5 C 1410 318.5 1410.1 318.5 1410.3 318.8 C 1410.6 319 1410.7 319.6 1410.7 319.9 C 1410.7 320.3 1410.6 320.6 1410.4 320.9 C 1410.4 321.1 1410.1 321.2 1409.9 321.2 C 1408.7 321.3 1407.4 321.3 1406.4 321.6 C 1400.3 323.2 1393.5 330.5 1387.5 335.4 C 1394.3 343.8 1400.7 352.3 1408.3 360.7 C 1408.9 361.3 1409.6 361.7 1410.4 362 C 1411.3 362.4 1412.6 362.7 1413.7 362.8 C 1414.1 363 1415 363 1415.6 363.1 C 1415.9 363.6 1416 364 1416 364.4 C 1416 364.9 1416 365.3 1415.4 365.7 L 1388.9 365.7 C 1388.6 365.4 1388.3 364.3 1388.3 364.3 C 1388.3 361.7 1391.9 363.7 1391.9 361.4 C 1391.9 360.4 1380.8 345.7 1377.2 340.7 C 1377.2 340.7 1376.9 340.7 1376.9 340.9 L 1376.9 359.7 C 1376.9 360.7 1378.3 362.6 1379.5 362.7 C 1380.2 362.8 1381 363 1381.8 363.1 C 1382 363.6 1382.2 364 1382.2 364.4 C 1382.2 364.9 1382.2 365.3 1381.6 365.7 L 1343.6 365.7 C 1342.9 365.6 1342.1 365.3 1341.5 365 C 1338.7 364 1338.9 360.8 1338.2 358.8 C 1334.4 365.1 1326.7 367 1321.7 367 C 1316.5 367 1309.8 364.7 1307.5 357.3 C 1307.1 355.5 1306.7 352.4 1306.7 352.1 L 1306.7 334.4 C 1306.5 333.8 1306.4 332.8 1306 332.1 C 1305.8 331.5 1305.1 330.4 1304.3 329.8 C 1303.5 329.4 1300.5 329.2 1300.5 328.1 C 1300.5 326.9 1303 326.2 1303.5 325.9 C 1305 325.2 1317.7 318.5 1319.4 318.5 C 1320.2 318.5 1321.4 319 1321.4 320.2 L 1321.4 350.3 C 1321.7 355.5 1324 360.4 1329.2 360.4 C 1333.2 360.4 1337.1 355.7 1337.5 351.1 L 1337.5 329.6 C 1337.4 328.6 1337.1 327.3 1336.7 326.3 C 1336.4 325.6 1335.8 324.8 1335.1 324.3 C 1333.9 323.6 1332.7 323.6 1331.7 323.2 C 1331.5 323.2 1331.2 323.1 1331.2 322.6 C 1331.2 321.5 1333.7 320.8 1334.2 320.5 C 1335.7 319.8 1348.2 313 1350.2 313 C 1351.4 313 1352.2 313.8 1352.2 315.2 L 1352.2 358.4 C 1352.9 361.7 1354.9 363 1357.1 363 C 1359.9 363 1361.8 361 1362.2 357.6 L 1362.2 295 C 1362.1 294 1361.6 292.6 1361.3 291.6 C 1361.2 291 1360.2 289.6 1359.6 289.4 C 1358.6 289 1357.3 288.7 1356.3 288.4 C 1356.2 288.4 1355.9 288.1 1355.9 287.8 C 1355.9 286.7 1357.8 286.1 1358.8 285.7 C 1360.2 285 1372.8 278.3 1374.8 278.3 C 1376.3 278.3 1376.9 279.4 1376.9 280.5 ZM 1234.3 321.1 L 1234.3 327.5 C 1230.9 325.6 1225.8 324.3 1222.2 324.3 C 1210.6 324.3 1205.6 333.8 1205.6 342.8 C 1205.6 353.1 1211.6 360.8 1222.8 360.8 C 1226.8 360.8 1230.5 360 1235 358 L 1235 364 C 1230.9 365.7 1226.5 366.4 1222.3 366.4 C 1214.8 366.4 1206.1 364 1201.5 353.5 C 1200.9 352 1199.7 347 1199.7 345.1 L 1199.7 341.4 C 1201.1 326.3 1210.2 318.8 1222.1 318.8 C 1225.9 318.8 1230.2 319.6 1234.3 321.1 ZM 1302 358 C 1302 362.1 1298.7 365.4 1294.6 365.4 C 1290.3 365.4 1287.1 362.1 1287.1 358 C 1287.1 353.7 1290.3 350.5 1294.4 350.5 C 1298.7 350.5 1302 354.1 1302 358 ZM 1194.8 358.3 C 1194.8 362.6 1191.1 365.9 1187.2 365.9 C 1187 365.9 1185.2 365.6 1184.5 365.1 C 1183.7 364.9 1182.5 364.3 1181.7 363.3 C 1181.4 363 1180 360.1 1180 359.7 L 1180 357 C 1180.7 352.7 1184.2 350.8 1187.4 350.8 C 1191.5 350.8 1194.8 354 1194.8 358.3 Z" fill="url(#gradient13)"/>
		<path filter="url(#filter11)" d="M 1283.6 342.7 C 1283.6 356 1274.1 366.4 1260.3 366.4 C 1252.5 366.4 1243.5 363 1238.8 352.3 C 1238.3 351.3 1237 346.4 1237 344.8 L 1237 340.5 C 1238.8 325.5 1249.5 318.8 1260.3 318.8 C 1274.1 318.8 1283.6 329.5 1283.6 342.7 ZM 1277.4 342.7 C 1277.4 352.1 1270.6 360.7 1260.3 360.7 C 1257.6 360.7 1255.2 359.8 1252.6 358.8 C 1247.7 357.1 1243.3 349.1 1243.3 345.5 L 1243.3 339.8 C 1245.3 328.9 1252.5 324.6 1260.3 324.6 C 1270.9 324.6 1277.4 333.1 1277.4 342.7 Z" fill="url(#gradient14)"/>
		<path filter="url(#filter12)" d="M 1277.4 342.7 C 1277.4 352.1 1270.6 360.7 1260.3 360.7 C 1257.6 360.7 1255.2 359.8 1252.6 358.8 C 1247.7 357.1 1243.3 349.1 1243.3 345.5 L 1243.3 339.8 C 1245.3 328.9 1252.5 324.6 1260.3 324.6 C 1270.9 324.6 1277.4 333.1 1277.4 342.7 Z" fill="#343a40"/>
	</g>
</svg>