<?xml version="1.0" standalone="no"?>

<svg viewBox="0 0 1191 267" style="background-color:#ffffff00" version="1.1" xmlns="http://www.w3.org/2000/svg" xmlns:xlink="http://www.w3.org/1999/xlink" xml:space="preserve" x="0px" y="0px" width="100%" height="100%">
	<g id="Layer%201">
	</g>
	<g id="Layer%202">
		<path id="N" d="M 1017.1 55.5 L 1017.4 54 L 1019.8 52.4 L 1021.4 50.8 L 1022.5 49.9 L 1024 48.9 L 1025.4 49.3 L 1028.8 49 L 1066.8 49 L 1070.1 49.3 L 1075.2 53.1 L 1135.1 117.7 L 1143.8 125.3 L 1143.8 114 C 1143.8 114 1144 68.6 1143.8 68.5 C 1143 68.1 1140.5 64.3 1140.5 64.3 L 1123.8 50 L 1125.7 49 L 1180.6 49 L 1181.6 49 L 1184.8 49 L 1185 50 L 1184 51.2 L 1181.6 53.4 L 1181 54.4 L 1175.8 60 L 1175.1 60.7 L 1173.9 62.9 C 1173.9 62.9 1173.9 203.5 1173.9 203.5 C 1174 203.5 1174.1 210.1 1174.1 210.1 L 1172.3 213.6 L 1169.5 213.2 L 1166.7 210.2 L 1131.7 172.5 L 1119.7 159.5 L 1110.7 149.8 L 1094.2 132 L 1074.3 113 L 1073.4 112 L 1071 110.1 L 1071.4 111.8 L 1071.4 198.5 C 1071.4 198.5 1078.3 206.2 1082.4 210.7 C 1083 211.3 1081.8 212 1082.3 212.5 C 1083.1 211.9 1085.5 213.8 1085.5 213.7 C 1085.8 213.4 1086.6 214.9 1087 215.3 C 1087.9 216.3 1087 216.9 1087 216.9 L 1085.9 217.8 L 1083.5 217.3 L 1080.9 218 L 1023 218 L 1022.8 215.5 L 1023.8 214 L 1041.2 196.3 L 1041.2 192.8 L 1041.2 70.4 L 1041.2 68.5 L 1038.5 65.5 L 1036.2 63 L 1035.2 62 L 1023.2 62 C 1023.2 62 1022.4 62.1 1021.4 61.1 C 1021.1 60.8 1019.5 59.7 1019 59.1 C 1018.7 58.8 1017.8 57.3 1017.5 57 C 1016.8 56.2 1016.8 55.3 1017.1 55.5 Z" stroke="#ffffff" stroke-width="1" fill="#ffffff"/>
		<path d="M 932.1 91.5 L 933.7 86.8 L 935.2 84 L 936.5 81.4 L 940.1 76.3 L 943.8 71.7 L 949.6 69.1 L 951.1 68.3 L 954.2 68.2 L 958.9 67.8 L 975.6 67.8 L 977 67.8 L 983 69.5 L 985.5 71.8 L 988.5 74.3 L 992 77 L 995.3 81 L 997.5 83.5 L 999 84.8 L 1001.3 88.8 L 1003 92.8 L 1002.6 97.1 L 1003.7 99.1 L 1003.7 101 L 1003.7 103.9 L 1003.7 152.4 C 1003.7 152.4 1004.5 159.3 1004.4 165 C 1004.2 165.6 1003 165.7 1002.8 166.5 C 1002.5 167.2 1003.2 168.8 1003 169.5 C 1002.8 170.1 1001.9 169.7 1001.8 170.3 C 1001.3 171.7 1001.2 173.5 1001.3 173.5 C 1001.3 173.5 1000 175.1 1000 175.1 L 999.9 178.3 L 998.9 179.5 L 998.3 180.4 L 997.6 181.4 L 996.3 182.8 L 996.6 184.6 L 995.1 188.1 L 992 188.8 L 990.3 190.8 L 988.3 192.8 L 985.3 194.8 L 985.9 195.7 L 984.8 196.4 L 981.3 196.7 L 979.1 198.6 L 976.5 199.3 L 957.6 199.2 L 954.1 198.8 L 950.4 197 L 946.6 194.8 L 944.1 193.1 L 940.4 189.5 L 937.4 186.4 L 934.3 180.1 L 931.9 175.8 L 930.4 171.3 L 929.4 166.8 L 928.9 161.7 L 928.9 159 L 928.9 135 L 928.4 125.8 L 928.9 124.5 L 928.9 115 L 928.9 101.9 L 932.1 91.5 ZM 944.9 49.4 L 942.3 49.6 L 937.1 50.8 L 933.4 52.6 L 929.8 55.3 L 922.8 59.6 L 917.3 63.9 L 913 67.9 L 908.5 71.1 L 905.2 75.9 L 902 79.5 L 899.2 82.6 L 893 91.1 L 888.9 109.3 L 889 116.3 L 889 162.3 L 889.4 169.8 C 889.4 169.8 890.2 180.7 891.1 181.9 C 892.1 183.2 904.7 201.7 905.8 202.1 C 908.8 203.4 909.9 205.3 909.9 205.3 L 916.1 209.6 L 920.6 211.8 L 922.8 213 L 930 215.8 L 935.3 216.9 L 942.6 217.6 L 950.5 218.1 L 980.5 218 L 984.5 218 L 988.4 217.4 L 990 216.5 L 992.5 215.6 L 999.4 214.8 L 1003.8 211.8 L 1006.9 209.6 L 1013.3 206.6 L 1015.3 205.5 L 1017.1 203.3 L 1018.9 201.2 L 1025 195 L 1031.5 189 C 1031.5 189 1034.3 184.5 1034.9 183.9 C 1035.6 183 1036.7 180.4 1036.7 180.4 L 1038.4 176.6 L 1038.5 170.5 L 1038.3 163.3 L 1037.8 105.8 L 1038.3 94.3 L 1035.7 88.1 L 1033.8 87.5 L 1033.4 83.9 L 1031.3 80.3 L 1026.5 76.3 L 1021.3 70.8 L 1018 67.8 L 1015.5 64.3 L 1013.8 62.8 L 1011.3 60.8 L 1008 58.8 L 1005.3 57.5 L 1002 55.3 L 999 53.5 L 995.5 52.8 L 991.8 50.8 L 987 49.8 L 983.2 49 L 948.9 49 L 944.9 49.4 ZM 964 105 L 958.4 123.9 L 947.4 130.2 L 947.4 142.8 L 958.4 149.1 L 964 168 L 969.5 168 L 975.1 149.1 L 986.1 142.8 L 986.1 130.2 L 975.1 123.9 L 969.5 105 L 964 105 Z" stroke="#ffffff" stroke-width="1" fill="#ffffff"/>
		<path id="H" d="M 738 49.2 L 810.5 49 L 810.7 51.4 L 809.4 53 L 806.5 55 L 805 58.3 L 801.2 61.9 L 797.1 67.3 L 794.5 70.3 L 794.5 73.9 L 794.6 86.2 L 794.7 104.5 L 794.5 121.8 L 797 123.3 L 809.8 123.5 L 843 123.5 L 848.4 116.7 L 848.2 68.8 L 848 66 L 844.2 61.4 L 841.8 60.3 L 839.6 57.2 L 836.6 54 L 834.2 49.7 L 895.7 49.8 L 892.5 53.4 L 891.3 56 L 889.2 58.7 L 885.9 62.7 L 885.9 103.2 C 885.9 103.2 885.6 162.3 885.6 172.1 C 885.7 174 885.7 175.9 885.7 177.7 C 885.8 189.3 885.9 197.8 885.9 197.8 L 890.3 203.3 L 898.7 213.9 L 902 218 L 896.4 218 L 834.7 217.8 L 848.4 197.8 L 848.4 143.7 L 846.8 138.6 L 797 138.7 L 794.8 143.7 L 794.8 197.8 L 805.5 211.2 L 809 215.5 L 809.7 217.8 L 801.1 217.8 L 765.7 218 L 762.4 218 L 741.2 218 L 744 214.4 L 757.6 195.9 L 757.1 110.2 L 757 85.5 L 760 74.7 L 759.7 71.8 L 757 69.8 L 757 66.3 L 754.1 61.5 L 748.9 58.2 L 745.8 54.6 L 742 52.9 L 738 49.2 Z" stroke="#ffffff" stroke-width="1" fill="#ffffff"/>
		<path id="T" d="M 625.3 50.3 L 621 51.8 L 621 103.1 L 629.3 88.8 L 643.5 62.5 L 671.5 62.5 L 671.5 197.7 L 657.8 209.8 L 645.5 218 L 725 218 L 732.9 218 L 732.3 214.8 L 722.8 208.3 L 718 205 L 712.8 200.8 L 710.8 197.7 L 709.9 64.4 L 711.3 63.3 L 736.8 63.3 L 755.3 84 L 756 87.5 L 759 89.3 L 761 84.8 L 765 82.8 L 763.5 76.8 L 765 72.5 L 765 60.5 L 763.3 56 L 761.3 55 L 760.5 51.8 L 758.3 50.3 L 755 49 L 634.3 49.5 L 625.3 50.3 Z" stroke="#ffffff" stroke-width="1" fill="#ffffff"/>
		<path d="M 579 114 L 581 114 L 587.8 143.8 L 583 144 L 571 144 L 579 114 ZM 568 218 L 569 215 L 568 211 L 556 201 C 556 201 556.3 198.9 556 199 C 555.8 199.1 560 185 560 185 L 566 164 L 592 164 L 601 192 L 601 200 L 590 209 L 590 212 L 591 218 L 656 218 L 658 217 L 659 215 L 659 213 L 657 211 L 654 209 L 642 199 L 606 67 L 605 61 L 604 60 L 602 59 L 602 51 L 600 50 L 556 50 L 555 52 L 556 55 L 555 57 L 568 67 L 568 72 L 567 73 L 532 198 L 530 200 L 515 211 L 514 213 L 514 217 L 516 218 L 568 218 Z" stroke="#ffffff" stroke-width="1" fill="#ffffff"/>
		<path d="M 474 69 C 473.9 68.8 480 72 480 72 L 485 75 L 490 81 L 493 86 L 496 94 L 499 104 L 500 111 L 501 120 L 502 142 L 501 150 L 500 160 L 498 166 L 496 172 L 494 176 L 492 182 L 488 188 L 483 193 L 474 197 C 474 197 474.1 69.3 474 69 ZM 413.7 49 L 435 66 L 438.8 72 L 438.8 198.3 L 436.5 199.9 L 424 211 L 419 213 L 416.4 214.8 L 417.4 217 L 419.9 217.6 L 465.4 217.6 L 473 217 L 481 216 L 489 214 L 494 212 L 499 210 C 499 210 506.3 206.5 507 206 C 507.8 205.5 511 203 511 203 L 515 199 L 520 194 L 525 188 L 529 181 L 532 174 L 534 169 L 536 162 L 536 155 L 537 150 L 538 144 L 537 119 L 536 111 L 534 104 L 533 98 L 530 91 L 528 86 L 524 80 L 520 74 L 515 69 L 509 63 L 496 56 L 491 54 L 485 52 L 477 50 L 460 49 L 413.7 49 Z" stroke="#ffffff" stroke-width="1" fill="#ffffff"/>
		<path id="L" d="M 316 218 L 343 199 L 343.1 68.1 L 318 49 L 406.8 49 L 400 54 L 383 68 L 382 198 L 393 198 L 395 196 L 397 190 L 401 182 L 406 169 L 412 153 L 414 148 L 419 140 L 422 139 L 423 210 L 423 217 L 421 218 L 316 218 Z" stroke="#ffffff" stroke-width="1" fill="#ffffff"/>
		<path id="E" d="M 222.6 57.8 L 223.3 54.4 L 225.8 51.5 L 229 50 L 322.5 50 L 322.6 112.4 L 321.4 113 L 319.1 113 L 317.6 111.8 L 298 66.8 L 269.3 67 L 269 121 L 271 123 L 283 123 L 299 104 L 301 104 L 302.5 106.3 L 302.4 161.5 L 298.5 161.5 L 281.5 140.5 L 271.1 140.5 L 269 142 L 269 198.4 L 296.4 197.6 L 319.1 143 L 320.9 140.6 L 322.8 142.3 L 323.9 146.4 L 323 216 L 222 218 L 221 215 L 222 212 L 234 201 L 233.4 66.1 L 222.6 57.8 Z" stroke="#ffffff" stroke-width="1" fill="#ffffff"/>
		<path id="Z" d="M 138.3 110.4 L 138.4 97.5 L 173.9 53.6 L 193.1 30 L 174.3 61.6 L 165.5 78.6 L 164.1 80.9 L 163.5 83 L 162.4 83.8 L 161.1 86.1 L 152.9 102.4 L 151.5 103.8 L 138.3 110.8 L 138.3 110.4 ZM 115.5 144.3 L 114.6 130.3 L 128.4 124.4 L 130.5 138.4 L 115.6 144.4 L 115.5 144.3 ZM 93.8 163.5 L 51 240.5 L 105.8 172.3 L 106.3 164 L 107.3 161.8 L 107.5 159 L 103.3 159.3 L 102.3 158 L 100 158.5 L 99.5 160.8 L 93.5 163.5 L 93.8 163.5 ZM 5.8 78.5 L 11.5 62.3 L 13.5 56.8 L 20.5 37.8 L 24.3 26.8 L 32.3 5.3 L 68.3 5.5 L 194.8 5.5 L 201.8 5.5 L 226.8 5.5 L 227.3 7.3 L 229 8.5 L 231.3 11.3 L 231.8 13.8 L 211.3 43.5 L 199.8 62.3 L 198.3 64.3 L 170.3 107.5 L 167.3 112.5 L 84.5 234 L 186.5 234.5 L 240 189 L 216.3 260.3 L 214 261.3 L 205.5 261.3 L 8.3 261.5 L 80.3 155.5 L 96.8 131.3 L 98.5 128.8 L 144.5 60 L 158.8 37.3 L 161 34.8 L 163.3 32 L 157.5 32 L 150.5 32.3 L 91.5 31.8 L 78.8 32.3 L 69 32.3 L 57.5 40.8 L 48.5 47.5 L 5.8 78.3 L 5.8 78.5 Z" stroke="#ffffff" stroke-width="1" fill="#ffffff"/>
		<path id="Z2" d="M 138.3 110.4 L 138.4 97.5 L 173.9 53.6 L 193.1 30 L 174.3 61.6 L 165.5 78.6 L 164.1 80.9 L 163.5 83 L 162.4 83.8 L 161.1 86.1 L 152.9 102.4 L 151.5 103.8 L 138.3 110.8 L 138.3 110.4 ZM 115.5 144.3 L 114.6 130.3 L 128.4 124.4 L 130.5 138.4 L 115.6 144.4 L 115.5 144.3 Z" stroke="#ffffff" stroke-width="1" fill="none"/>
	</g>
</svg>