<?xml version="1.0" standalone="no"?>

<svg viewBox="0 0 1424 265" style="background-color:#ffffff00" version="1.1" xmlns="http://www.w3.org/2000/svg" xmlns:xlink="http://www.w3.org/1999/xlink" xml:space="preserve" x="0px" y="0px" width="100%" height="100%">
	<defs>
		<linearGradient id="gradient1" x1="50%" y1="0%" x2="50%" y2="100%">
			<stop stop-color="#ffa2ac" stop-opacity="1" offset="0%"/>
			<stop stop-color="#f6182f" stop-opacity="1" offset="5%"/>
			<stop stop-color="#eb232d" stop-opacity="1" offset="92.8%"/>
			<stop stop-color="#a6313a" stop-opacity="1" offset="100%"/>
		</linearGradient>
		<linearGradient id="gradient2" x1="49.5%" y1="0%" x2="49.5%" y2="100%">
			<stop stop-color="#ffa2ac" stop-opacity="1" offset="0%"/>
			<stop stop-color="#f6182f" stop-opacity="1" offset="5%"/>
			<stop stop-color="#eb232d" stop-opacity="1" offset="92.8%"/>
			<stop stop-color="#a6313a" stop-opacity="1" offset="100%"/>
		</linearGradient>
		<linearGradient id="gradient3" x1="50%" y1="0%" x2="50%" y2="100%">
			<stop stop-color="#ffa2ac" stop-opacity="1" offset="0%"/>
			<stop stop-color="#f6182f" stop-opacity="1" offset="5%"/>
			<stop stop-color="#eb232d" stop-opacity="1" offset="92.8%"/>
			<stop stop-color="#a6313a" stop-opacity="1" offset="100%"/>
		</linearGradient>
		<linearGradient id="gradient4" x1="50%" y1="0%" x2="50%" y2="100.3%">
			<stop stop-color="#ffa2ac" stop-opacity="1" offset="0%"/>
			<stop stop-color="#f6182f" stop-opacity="1" offset="5%"/>
			<stop stop-color="#eb232d" stop-opacity="1" offset="92.8%"/>
			<stop stop-color="#a6313a" stop-opacity="1" offset="100%"/>
		</linearGradient>
		<linearGradient id="gradient5" x1="50%" y1="0%" x2="50%" y2="100%">
			<stop stop-color="#ffa2ac" stop-opacity="1" offset="0%"/>
			<stop stop-color="#f6182f" stop-opacity="1" offset="5%"/>
			<stop stop-color="#eb232d" stop-opacity="1" offset="92.8%"/>
			<stop stop-color="#a6313a" stop-opacity="1" offset="100%"/>
		</linearGradient>
		<linearGradient id="gradient6" x1="51.1%" y1="0%" x2="51.1%" y2="100%">
			<stop stop-color="#ffa2ac" stop-opacity="1" offset="0%"/>
			<stop stop-color="#f6182f" stop-opacity="1" offset="5%"/>
			<stop stop-color="#eb232d" stop-opacity="1" offset="92.8%"/>
			<stop stop-color="#a6313a" stop-opacity="1" offset="100%"/>
		</linearGradient>
		<linearGradient id="gradient7" x1="50%" y1="0%" x2="50%" y2="100%">
			<stop stop-color="#ffa2ac" stop-opacity="1" offset="0%"/>
			<stop stop-color="#f6182f" stop-opacity="1" offset="5%"/>
			<stop stop-color="#eb232d" stop-opacity="1" offset="92.8%"/>
			<stop stop-color="#a6313a" stop-opacity="1" offset="100%"/>
		</linearGradient>
		<linearGradient id="gradient8" x1="50%" y1="0%" x2="50%" y2="100.1%">
			<stop stop-color="#ffa2ac" stop-opacity="1" offset="0%"/>
			<stop stop-color="#f6182f" stop-opacity="1" offset="5%"/>
			<stop stop-color="#eb232d" stop-opacity="1" offset="92.8%"/>
			<stop stop-color="#a6313a" stop-opacity="1" offset="100%"/>
		</linearGradient>
		<linearGradient id="gradient9" x1="50%" y1="0%" x2="50%" y2="100%">
			<stop stop-color="#ffa2ac" stop-opacity="1" offset="0%"/>
			<stop stop-color="#f6182f" stop-opacity="1" offset="5%"/>
			<stop stop-color="#eb232d" stop-opacity="1" offset="92.8%"/>
			<stop stop-color="#a6313a" stop-opacity="1" offset="100%"/>
		</linearGradient>
		<linearGradient id="gradient10" x1="58.1%" y1="-31.9%" x2="58.1%" y2="157.9%">
			<stop stop-color="#ffa2ac" stop-opacity="1" offset="0%"/>
			<stop stop-color="#f6182f" stop-opacity="1" offset="5%"/>
			<stop stop-color="#eb232d" stop-opacity="1" offset="92.8%"/>
			<stop stop-color="#a6313a" stop-opacity="1" offset="100%"/>
		</linearGradient>
		<linearGradient id="gradient11" x1="171.9%" y1="-144.4%" x2="171.9%" y2="209%">
			<stop stop-color="#ffa2ac" stop-opacity="1" offset="0%"/>
			<stop stop-color="#f6182f" stop-opacity="1" offset="5%"/>
			<stop stop-color="#eb232d" stop-opacity="1" offset="92.8%"/>
			<stop stop-color="#a6313a" stop-opacity="1" offset="100%"/>
		</linearGradient>
	</defs>
	<path id="N" d="M 1016.1 54.5 L 1016.4 53 L 1018.8 51.4 L 1020.4 49.8 L 1021.5 48.9 L 1023 47.9 L 1024.4 48.3 L 1027.8 48 L 1065.8 48 L 1069.1 48.3 L 1074.2 52.1 L 1134.1 116.7 L 1142.8 124.3 L 1142.8 113 C 1142.8 113 1143 67.6 1142.8 67.5 C 1142 67.1 1139.5 63.3 1139.5 63.3 L 1122.8 49 L 1124.7 48 L 1179.6 48 L 1180.6 48 L 1183.8 48 L 1184 49 L 1183 50.2 L 1180.6 52.4 L 1180 53.4 L 1174.8 59 L 1174.1 59.7 L 1172.9 61.9 C 1172.9 61.9 1172.9 202.5 1172.9 202.5 C 1173 202.5 1173.1 209.1 1173.1 209.1 L 1171.3 212.6 L 1168.5 212.2 L 1165.7 209.2 L 1130.7 171.5 L 1118.7 158.5 L 1109.7 148.8 L 1093.2 131 L 1073.3 112 L 1072.4 111 L 1070 109.1 L 1070.4 110.8 L 1070.4 197.5 C 1070.4 197.5 1077.3 205.2 1081.4 209.7 C 1082 210.3 1080.8 211 1081.3 211.5 C 1082.1 210.9 1084.5 212.8 1084.5 212.7 C 1084.8 212.4 1085.6 213.9 1086 214.3 C 1086.9 215.3 1086 215.9 1086 215.9 L 1084.9 216.8 L 1082.5 216.3 L 1079.9 217 L 1022 217 L 1021.8 214.5 L 1022.8 213 L 1040.2 195.3 L 1040.2 191.8 L 1040.2 69.4 L 1040.2 67.5 L 1037.5 64.5 L 1035.2 62 L 1034.2 61 L 1022.2 61 C 1022.2 61 1021.4 61.1 1020.4 60.1 C 1020.1 59.8 1018.5 58.7 1018 58.1 C 1017.7 57.8 1016.8 56.3 1016.5 56 C 1015.8 55.2 1015.8 54.3 1016.1 54.5 Z" stroke="#ffffff" stroke-width="3" fill="url(#gradient1)"/>
	<path d="M 931.1 90.5 L 932.7 85.8 L 934.2 83 L 935.5 80.4 L 939.1 75.3 L 942.8 70.7 L 948.6 68.1 L 950.1 67.3 L 953.2 67.2 L 957.9 66.8 L 974.6 66.8 L 976 66.8 L 982 68.5 L 984.5 70.8 L 987.5 73.3 L 991 76 L 994.3 80 L 996.5 82.5 L 998 83.8 L 1000.3 87.8 L 1002 91.8 L 1001.6 96.1 L 1002.7 98.1 L 1002.7 100 L 1002.7 102.9 L 1002.7 151.4 C 1002.7 151.4 1003.5 158.3 1003.4 164 C 1003.2 164.6 1002 164.7 1001.8 165.5 C 1001.5 166.2 1002.2 167.8 1002 168.5 C 1001.8 169.1 1000.9 168.7 1000.8 169.3 C 1000.3 170.7 1000.2 172.5 1000.3 172.5 C 1000.3 172.5 999 174.1 999 174.1 L 998.9 177.3 L 997.9 178.5 L 997.3 179.4 L 996.6 180.4 L 995.3 181.8 L 995.6 183.6 L 994.1 187.1 L 991 187.8 L 989.3 189.8 L 987.3 191.8 L 984.3 193.8 L 984.9 194.7 L 983.8 195.4 L 980.3 195.7 L 978.1 197.6 L 975.5 198.3 L 956.6 198.2 L 953.1 197.8 L 949.4 196 L 945.6 193.8 L 943.1 192.1 L 939.4 188.5 L 936.4 185.4 L 933.3 179.1 L 930.9 174.8 L 929.4 170.3 L 928.4 165.8 L 927.9 160.7 L 927.9 158 L 927.9 134 L 927.4 124.8 L 927.9 123.5 L 927.9 114 L 927.9 100.9 L 931.1 90.5 ZM 943.9 48.4 L 941.3 48.6 L 936.1 49.8 L 932.4 51.6 L 928.8 54.3 L 921.8 58.6 L 916.3 62.9 L 912 66.9 L 907.5 70.1 L 904.2 74.9 L 901 78.5 L 898.2 81.6 L 892 90.1 L 887.9 108.3 L 888 115.3 L 888 161.3 L 888.4 168.8 C 888.4 168.8 889.2 179.7 890.1 180.9 C 891.1 182.2 903.7 200.7 904.8 201.1 C 907.8 202.4 908.9 204.3 908.9 204.3 L 915.1 208.6 L 919.6 210.8 L 921.8 212 L 929 214.8 L 934.3 215.9 L 941.6 216.6 L 949.5 217.1 L 979.5 217 L 983.5 217 L 987.4 216.4 L 989 215.5 L 991.5 214.6 L 998.4 213.8 L 1002.8 210.8 L 1005.9 208.6 L 1012.3 205.6 L 1014.3 204.5 L 1016.1 202.3 L 1017.9 200.2 L 1024 194 L 1030.5 188 C 1030.5 188 1033.3 183.5 1033.9 182.9 C 1034.6 182 1035.7 179.4 1035.7 179.4 L 1037.4 175.6 L 1037.5 169.5 L 1037.3 162.3 L 1036.8 104.8 L 1037.3 93.3 L 1034.7 87.1 L 1032.8 86.5 L 1032.4 82.9 L 1030.3 79.3 L 1025.5 75.3 L 1020.3 69.8 L 1017 66.8 L 1014.5 63.3 L 1012.8 61.8 L 1010.3 59.8 L 1007 57.8 L 1004.3 56.5 L 1001 54.3 L 998 52.5 L 994.5 51.8 L 990.8 49.8 L 986 48.8 L 982.2 48 L 947.9 48 L 943.9 48.4 ZM 963 104 L 957.4 122.9 L 946.4 129.2 L 946.4 141.8 L 957.4 148.1 L 963 167 L 968.5 167 L 974.1 148.1 L 985.1 141.8 L 985.1 129.2 L 974.1 122.9 L 968.5 104 L 963 104 Z" stroke="#ffffff" stroke-width="3" fill="url(#gradient2)"/>
	<path id="H" d="M 737 48.2 L 809.5 48 L 809.7 50.4 L 808.4 52 L 805.5 54 L 804 57.3 L 800.2 60.9 L 796.1 66.3 L 793.5 69.3 L 793.5 72.9 L 793.6 85.2 L 793.7 103.5 L 793.5 120.8 L 796 122.3 L 808.8 122.5 L 842 122.5 L 847.4 115.7 L 847.2 67.8 L 847 65 L 843.2 60.4 L 840.8 59.3 L 838.6 56.2 L 835.6 53 L 833.2 48.7 L 894.7 48.8 L 891.5 52.4 L 890.3 55 L 888.2 57.7 L 884.9 61.7 L 884.9 102.2 C 884.9 102.2 884.6 161.3 884.6 171.1 C 884.7 173 884.7 174.9 884.7 176.7 C 884.8 188.3 884.9 196.8 884.9 196.8 L 889.3 202.3 L 897.7 212.9 L 901 217 L 895.4 217 L 833.7 216.8 L 847.4 196.8 L 847.4 142.7 L 845.8 137.6 L 796 137.7 L 793.8 142.7 L 793.8 196.8 L 804.5 210.2 L 808 214.5 L 808.7 216.8 L 800.1 216.8 L 764.7 217 L 761.4 217 L 740.2 217 L 743 213.4 L 756.6 194.9 L 756.1 109.2 L 756 84.5 L 759 73.7 L 758.7 70.8 L 756 68.8 L 756 65.3 L 753.1 60.5 L 747.9 57.2 L 744.8 53.6 L 741 51.9 L 737 48.2 Z" stroke="#ffffff" stroke-width="3" fill="url(#gradient3)"/>
	<path id="T" d="M 624.3 49.3 L 620 50.8 L 620 102.1 L 628.3 87.8 L 642.5 61.5 L 670.5 61.5 L 670.5 196.7 L 656.8 208.8 L 644.5 217 L 724 217 L 731.9 217 L 731.3 213.8 L 721.8 207.3 L 717 204 L 711.8 199.8 L 709.8 196.7 L 708.9 63.4 L 710.3 62.3 L 735.8 62.3 L 754.3 83 L 755 86.5 L 758 88.3 L 760 83.8 L 764 81.8 L 762.5 75.8 L 764 71.5 L 764 59.5 L 762.3 55 L 760.3 54 L 759.5 50.8 L 757.3 49.3 L 754 48 L 633.3 48.5 L 624.3 49.3 Z" stroke="#ffffff" stroke-width="3" fill="url(#gradient4)"/>
	<path d="M 578 113 L 580 113 L 586.8 142.8 L 582 143 L 570 143 L 578 113 ZM 567 217 L 568 214 L 567 210 L 555 200 C 555 200 555.3 197.9 555 198 C 554.8 198.1 559 184 559 184 L 565 163 L 591 163 L 600 191 L 600 199 L 589 208 L 589 211 L 590 217 L 655 217 L 657 216 L 658 214 L 658 212 L 656 210 L 653 208 L 641 198 L 605 66 L 604 60 L 603 59 L 601 58 L 601 50 L 599 49 L 555 49 L 554 51 L 555 54 L 554 56 L 567 66 L 567 71 L 566 72 L 531 197 L 529 199 L 514 210 L 513 212 L 513 216 L 515 217 L 567 217 Z" stroke="#ffffff" stroke-width="3" fill="url(#gradient5)"/>
	<path d="M 473 68 C 472.9 67.8 479 71 479 71 L 484 74 L 489 80 L 492 85 L 495 93 L 498 103 L 499 110 L 500 119 L 501 141 L 500 149 L 499 159 L 497 165 L 495 171 L 493 175 L 491 181 L 487 187 L 482 192 L 473 196 C 473 196 473.1 68.3 473 68 ZM 412.7 48 L 434 65 L 437.8 71 L 437.8 197.3 L 435.5 198.9 L 423 210 L 418 212 L 415.4 213.8 L 416.4 216 L 418.9 216.6 L 464.4 216.6 L 472 216 L 480 215 L 488 213 L 493 211 L 498 209 C 498 209 505.3 205.5 506 205 C 506.8 204.5 510 202 510 202 L 514 198 L 519 193 L 524 187 L 528 180 L 531 173 L 533 168 L 535 161 L 535 154 L 536 149 L 537 143 L 536 118 L 535 110 L 533 103 L 532 97 L 529 90 L 527 85 L 523 79 L 519 73 L 514 68 L 508 62 L 495 55 L 490 53 L 484 51 L 476 49 L 459 48 L 412.7 48 Z" stroke="#ffffff" stroke-width="3" fill="url(#gradient6)"/>
	<path id="L" d="M 315 217 L 342 198 L 342.1 67.1 L 317 48 L 405.8 48 L 399 53 L 382 67 L 381 197 L 392 197 L 394 195 L 396 189 L 400 181 L 405 168 L 411 152 L 413 147 L 418 139 L 421 138 L 422 209 L 422 216 L 420 217 L 315 217 Z" stroke="#ffffff" stroke-width="3" fill="url(#gradient7)"/>
	<path id="E" d="M 221.6 56.8 L 222.3 53.4 L 224.8 50.5 L 228 49 L 321.5 49 L 321.6 111.4 L 320.4 112 L 318.1 112 L 316.6 110.8 L 297 65.8 L 268.3 66 L 268 120 L 270 122 L 282 122 L 298 103 L 300 103 L 301.5 105.3 L 301.4 160.5 L 297.5 160.5 L 280.5 139.5 L 270.1 139.5 L 268 141 L 268 197.4 L 295.4 196.6 L 318.1 142 L 319.9 139.6 L 321.8 141.3 L 322.9 145.4 L 322 215 L 221 217 L 220 214 L 221 211 L 233 200 L 232.4 65.1 L 221.6 56.8 Z" stroke="#ffffff" stroke-width="3" fill="url(#gradient8)"/>
	<path id="Z" d="M 137.3 109.4 L 137.4 96.5 L 172.9 52.6 L 192.1 29 L 173.3 60.6 L 164.5 77.6 L 163.1 79.9 L 162.5 82 L 161.4 82.8 L 160.1 85.1 L 151.9 101.4 L 150.5 102.8 L 137.3 109.8 L 137.3 109.4 ZM 114.5 143.3 L 113.6 129.3 L 127.4 123.4 L 129.5 137.4 L 114.6 143.4 L 114.5 143.3 ZM 92.8 162.5 L 50 239.5 L 104.8 171.3 L 105.3 163 L 106.3 160.8 L 106.5 158 L 102.3 158.3 L 101.3 157 L 99 157.5 L 98.5 159.8 L 92.5 162.5 L 92.8 162.5 ZM 4.8 77.5 L 10.5 61.3 L 12.5 55.8 L 19.5 36.8 L 23.3 25.8 L 31.3 4.3 L 67.3 4.5 L 193.8 4.5 L 200.8 4.5 L 225.8 4.5 L 226.3 6.3 L 228 7.5 L 230.3 10.3 L 230.8 12.8 L 210.3 42.5 L 198.8 61.3 L 197.3 63.3 L 169.3 106.5 L 166.3 111.5 L 83.5 233 L 185.5 233.5 L 239 188 L 215.3 259.3 L 213 260.3 L 204.5 260.3 L 7.3 260.5 L 79.3 154.5 L 95.8 130.3 L 97.5 127.8 L 143.5 59 L 157.8 36.3 L 160 33.8 L 162.3 31 L 156.5 31 L 149.5 31.3 L 90.5 30.8 L 77.8 31.3 L 68 31.3 L 56.5 39.8 L 47.5 46.5 L 4.8 77.3 L 4.8 77.5 Z" stroke="#ffffff" stroke-width="3" fill="url(#gradient9)"/>
	<path id="Z2" d="M 137.3 109.4 L 137.4 96.5 L 172.9 52.6 L 192.1 29 L 173.3 60.6 L 164.5 77.6 L 163.1 79.9 L 162.5 82 L 161.4 82.8 L 160.1 85.1 L 151.9 101.4 L 150.5 102.8 L 137.3 109.8 L 137.3 109.4 ZM 114.5 143.3 L 113.6 129.3 L 127.4 123.4 L 129.5 137.4 L 114.6 143.4 L 114.5 143.3 Z" fill="none"/>
	<path d="M 1380.9 130.5 L 1380.9 187.8 L 1381.2 188.1 C 1383.8 185.9 1386.5 183.6 1389.2 181.4 C 1391.2 179.5 1397.5 175.5 1397.5 173.2 C 1397.5 169.8 1392.3 172.8 1392.3 169.9 C 1392.3 169 1392.6 168.5 1393.3 168.5 L 1413.6 168.5 C 1414 168.5 1414.1 168.5 1414.3 168.8 C 1414.6 169 1414.7 169.6 1414.7 169.9 C 1414.7 170.3 1414.6 170.6 1414.4 170.9 C 1414.4 171.1 1414.1 171.2 1413.9 171.2 C 1412.7 171.3 1411.4 171.3 1410.4 171.6 C 1404.3 173.2 1397.5 180.5 1391.5 185.4 C 1398.3 193.8 1404.7 202.3 1412.3 210.7 C 1412.9 211.3 1413.6 211.7 1414.4 212 C 1415.3 212.4 1416.6 212.7 1417.7 212.8 C 1418.1 213 1419 213 1419.6 213.1 C 1419.9 213.6 1420 214 1420 214.4 C 1420 214.9 1420 215.3 1419.4 215.7 L 1392.9 215.7 C 1392.6 215.4 1392.3 214.3 1392.3 214.3 C 1392.3 211.7 1395.9 213.7 1395.9 211.4 C 1395.9 210.4 1384.8 195.7 1381.2 190.7 C 1381.2 190.7 1380.9 190.7 1380.9 190.9 L 1380.9 209.7 C 1380.9 210.7 1382.3 212.6 1383.5 212.7 C 1384.2 212.8 1385 213 1385.8 213.1 C 1386 213.6 1386.2 214 1386.2 214.4 C 1386.2 214.9 1386.2 215.3 1385.6 215.7 L 1347.6 215.7 C 1346.9 215.6 1346.1 215.3 1345.5 215 C 1342.7 214 1342.9 210.8 1342.2 208.8 C 1338.4 215.1 1330.7 217 1325.7 217 C 1320.5 217 1313.8 214.7 1311.5 207.3 C 1311.1 205.5 1310.7 202.4 1310.7 202.1 L 1310.7 184.4 C 1310.5 183.8 1310.4 182.8 1310 182.1 C 1309.8 181.5 1309.1 180.4 1308.3 179.8 C 1307.5 179.4 1304.5 179.2 1304.5 178.1 C 1304.5 176.9 1307 176.2 1307.5 175.9 C 1309 175.2 1321.7 168.5 1323.4 168.5 C 1324.2 168.5 1325.4 169 1325.4 170.2 L 1325.4 200.3 C 1325.7 205.5 1328 210.4 1333.2 210.4 C 1337.2 210.4 1341.1 205.7 1341.5 201.1 L 1341.5 179.6 C 1341.4 178.6 1341.1 177.3 1340.7 176.3 C 1340.4 175.6 1339.8 174.8 1339.1 174.3 C 1337.9 173.6 1336.7 173.6 1335.7 173.2 C 1335.5 173.2 1335.2 173.1 1335.2 172.6 C 1335.2 171.5 1337.7 170.8 1338.2 170.5 C 1339.7 169.8 1352.2 163 1354.2 163 C 1355.4 163 1356.2 163.8 1356.2 165.2 L 1356.2 208.4 C 1356.9 211.7 1358.9 213 1361.1 213 C 1363.9 213 1365.8 211 1366.2 207.6 L 1366.2 145 C 1366.1 144 1365.6 142.6 1365.3 141.6 C 1365.2 141 1364.2 139.6 1363.6 139.4 C 1362.6 139 1361.3 138.7 1360.3 138.4 C 1360.2 138.4 1359.9 138.1 1359.9 137.8 C 1359.9 136.7 1361.8 136.1 1362.8 135.7 C 1364.2 135 1376.8 128.3 1378.8 128.3 C 1380.3 128.3 1380.9 129.4 1380.9 130.5 ZM 1238.3 171.1 L 1238.3 177.5 C 1234.9 175.6 1229.8 174.3 1226.2 174.3 C 1214.6 174.3 1209.6 183.8 1209.6 192.8 C 1209.6 203.1 1215.6 210.8 1226.8 210.8 C 1230.8 210.8 1234.5 210 1239 208 L 1239 214 C 1234.9 215.7 1230.5 216.4 1226.3 216.4 C 1218.8 216.4 1210.1 214 1205.5 203.5 C 1204.9 202 1203.7 197 1203.7 195.1 L 1203.7 191.4 C 1205.1 176.3 1214.2 168.8 1226.1 168.8 C 1229.9 168.8 1234.2 169.6 1238.3 171.1 ZM 1306 208 C 1306 212.1 1302.7 215.4 1298.6 215.4 C 1294.3 215.4 1291.1 212.1 1291.1 208 C 1291.1 203.7 1294.3 200.5 1298.4 200.5 C 1302.7 200.5 1306 204.1 1306 208 ZM 1198.8 208.3 C 1198.8 212.6 1195.1 215.9 1191.2 215.9 C 1191 215.9 1189.2 215.6 1188.5 215.1 C 1187.7 214.9 1186.5 214.3 1185.7 213.3 C 1185.4 213 1184 210.1 1184 209.7 L 1184 207 C 1184.7 202.7 1188.2 200.8 1191.4 200.8 C 1195.5 200.8 1198.8 204 1198.8 208.3 Z" stroke="#ffffff" stroke-width="3" fill="url(#gradient10)"/>
	<path d="M 1287.6 192.7 C 1287.6 206 1278.1 216.4 1264.3 216.4 C 1256.5 216.4 1247.5 213 1242.8 202.3 C 1242.3 201.3 1241 196.4 1241 194.8 L 1241 190.5 C 1242.8 175.5 1253.5 168.8 1264.3 168.8 C 1278.1 168.8 1287.6 179.5 1287.6 192.7 ZM 1281.4 192.7 C 1281.4 202.1 1274.6 210.7 1264.3 210.7 C 1261.6 210.7 1259.2 209.8 1256.6 208.8 C 1251.7 207.1 1247.3 199.1 1247.3 195.5 L 1247.3 189.8 C 1249.3 178.9 1256.5 174.6 1264.3 174.6 C 1274.9 174.6 1281.4 183.1 1281.4 192.7 Z" stroke="#ffffff" stroke-width="3" fill="url(#gradient11)"/>
</svg>