<svg xmlns="http://www.w3.org/2000/svg" viewBox="0 0 4752 1032" width="4752" height="1032" shape-rendering="crispEdges">
  <rect x="156" y="108" width="672" height="24" fill="#d8e4b0"/><rect x="156" y="132" width="672" height="24" fill="#d8e4b0"/><rect x="156" y="156" width="408" height="24" fill="#d8e4b0"/><rect x="588" y="156" width="216" height="24" fill="#d8e4b0"/><rect x="132" y="180" width="192" height="24" fill="#d8e4b0"/><rect x="588" y="180" width="216" height="24" fill="#d8e4b0"/><rect x="132" y="204" width="120" height="24" fill="#d8e4b0"/><rect x="564" y="204" width="216" height="24" fill="#d8e4b0"/><rect x="132" y="228" width="96" height="24" fill="#d8e4b0"/><rect x="564" y="228" width="192" height="24" fill="#d8e4b0"/><rect x="972" y="228" width="48" height="24" fill="#d8e4b0"/><rect x="1068" y="228" width="24" height="24" fill="#d8e4b0"/><rect x="1140" y="228" width="72" height="24" fill="#d8e4b0"/><rect x="1236" y="228" width="144" height="24" fill="#d8e4b0"/><rect x="2100" y="228" width="144" height="24" fill="#d8e4b0"/><rect x="2292" y="228" width="216" height="24" fill="#d8e4b0"/><rect x="2556" y="228" width="72" height="24" fill="#d8e4b0"/><rect x="2844" y="228" width="96" height="24" fill="#d8e4b0"/><rect x="3396" y="228" width="144" height="24" fill="#d8e4b0"/><rect x="3732" y="228" width="192" height="24" fill="#d8e4b0"/><rect x="108" y="252" width="96" height="24" fill="#d8e4b0"/><rect x="540" y="252" width="192" height="24" fill="#d8e4b0"/><rect x="828" y="252" width="312" height="24" fill="#d8e4b0"/><rect x="1164" y="252" width="216" height="24" fill="#d8e4b0"/><rect x="1500" y="252" width="168" height="24" fill="#d8e4b0"/><rect x="1908" y="252" width="96" height="24" fill="#d8e4b0"/><rect x="2100" y="252" width="96" height="24" fill="#d8e4b0"/><rect x="2220" y="252" width="480" height="24" fill="#d8e4b0"/><rect x="2820" y="252" width="168" height="24" fill="#d8e4b0"/><rect x="3084" y="252" width="216" height="24" fill="#d8e4b0"/><rect x="3396" y="252" width="24" height="24" fill="#d8e4b0"/><rect x="3444" y="252" width="120" height="24" fill="#d8e4b0"/><rect x="3732" y="252" width="24" height="24" fill="#d8e4b0"/><rect x="3780" y="252" width="144" height="24" fill="#d8e4b0"/><rect x="108" y="276" width="72" height="24" fill="#d8e4b0"/><rect x="516" y="276" width="216" height="24" fill="#d8e4b0"/><rect x="828" y="276" width="192" height="24" fill="#d8e4b0"/><rect x="1044" y="276" width="96" height="24" fill="#d8e4b0"/><rect x="1188" y="276" width="144" height="24" fill="#d8e4b0"/><rect x="1524" y="276" width="96" height="24" fill="#d8e4b0"/><rect x="1644" y="276" width="48" height="24" fill="#d8e4b0"/><rect x="1932" y="276" width="120" height="24" fill="#d8e4b0"/><rect x="2100" y="276" width="96" height="24" fill="#d8e4b0"/><rect x="2220" y="276" width="24" height="24" fill="#d8e4b0"/><rect x="2268" y="276" width="192" height="24" fill="#d8e4b0"/><rect x="2484" y="276" width="192" height="24" fill="#d8e4b0"/><rect x="2844" y="276" width="120" height="24" fill="#d8e4b0"/><rect x="3060" y="276" width="216" height="24" fill="#d8e4b0"/><rect x="3300" y="276" width="48" height="24" fill="#d8e4b0"/><rect x="3468" y="276" width="120" height="24" fill="#d8e4b0"/><rect x="3804" y="276" width="96" height="24" fill="#d8e4b0"/><rect x="108" y="300" width="48" height="24" fill="#d8e4b0"/><rect x="516" y="300" width="72" height="24" fill="#d8e4b0"/><rect x="612" y="300" width="96" height="24" fill="#d8e4b0"/><rect x="852" y="300" width="120" height="24" fill="#d8e4b0"/><rect x="1068" y="300" width="72" height="24" fill="#d8e4b0"/><rect x="1188" y="300" width="144" height="24" fill="#d8e4b0"/><rect x="1500" y="300" width="120" height="24" fill="#d8e4b0"/><rect x="1668" y="300" width="72" height="24" fill="#d8e4b0"/><rect x="1932" y="300" width="120" height="24" fill="#d8e4b0"/><rect x="2100" y="300" width="72" height="24" fill="#d8e4b0"/><rect x="2268" y="300" width="120" height="24" fill="#d8e4b0"/><rect x="2508" y="300" width="168" height="24" fill="#d8e4b0"/><rect x="2844" y="300" width="120" height="24" fill="#d8e4b0"/><rect x="3036" y="300" width="120" height="24" fill="#d8e4b0"/><rect x="3324" y="300" width="48" height="24" fill="#d8e4b0"/><rect x="3468" y="300" width="144" height="24" fill="#d8e4b0"/><rect x="3804" y="300" width="96" height="24" fill="#d8e4b0"/><rect x="492" y="324" width="96" height="24" fill="#d8e4b0"/><rect x="612" y="324" width="96" height="24" fill="#d8e4b0"/><rect x="828" y="324" width="120" height="24" fill="#d8e4b0"/><rect x="1068" y="324" width="72" height="24" fill="#d8e4b0"/><rect x="1188" y="324" width="144" height="24" fill="#d8e4b0"/><rect x="1524" y="324" width="96" height="24" fill="#d8e4b0"/><rect x="1692" y="324" width="96" height="24" fill="#d8e4b0"/><rect x="1932" y="324" width="96" height="24" fill="#d8e4b0"/><rect x="2100" y="324" width="48" height="24" fill="#d8e4b0"/><rect x="2268" y="324" width="120" height="24" fill="#d8e4b0"/><rect x="2532" y="324" width="144" height="24" fill="#d8e4b0"/><rect x="2844" y="324" width="120" height="24" fill="#d8e4b0"/><rect x="3012" y="324" width="120" height="24" fill="#d8e4b0"/><rect x="3324" y="324" width="72" height="24" fill="#d8e4b0"/><rect x="3468" y="324" width="168" height="24" fill="#d8e4b0"/><rect x="3804" y="324" width="96" height="24" fill="#d8e4b0"/><rect x="468" y="348" width="216" height="24" fill="#d8e4b0"/><rect x="828" y="348" width="120" height="24" fill="#d8e4b0"/><rect x="1092" y="348" width="48" height="24" fill="#d8e4b0"/><rect x="1188" y="348" width="144" height="24" fill="#d8e4b0"/><rect x="1524" y="348" width="96" height="24" fill="#d8e4b0"/><rect x="1692" y="348" width="72" height="24" fill="#d8e4b0"/><rect x="1908" y="348" width="168" height="24" fill="#d8e4b0"/><rect x="2100" y="348" width="24" height="24" fill="#d8e4b0"/><rect x="2268" y="348" width="120" height="24" fill="#d8e4b0"/><rect x="2556" y="348" width="120" height="24" fill="#d8e4b0"/><rect x="2844" y="348" width="120" height="24" fill="#d8e4b0"/><rect x="2988" y="348" width="120" height="24" fill="#d8e4b0"/><rect x="3348" y="348" width="96" height="24" fill="#d8e4b0"/><rect x="3468" y="348" width="192" height="24" fill="#d8e4b0"/><rect x="3804" y="348" width="96" height="24" fill="#d8e4b0"/><rect x="444" y="372" width="216" height="24" fill="#d8e4b0"/><rect x="828" y="372" width="120" height="24" fill="#d8e4b0"/><rect x="1092" y="372" width="48" height="24" fill="#d8e4b0"/><rect x="1188" y="372" width="144" height="24" fill="#d8e4b0"/><rect x="1500" y="372" width="120" height="24" fill="#d8e4b0"/><rect x="1692" y="372" width="120" height="24" fill="#d8e4b0"/><rect x="1908" y="372" width="168" height="24" fill="#d8e4b0"/><rect x="2100" y="372" width="24" height="24" fill="#d8e4b0"/><rect x="2268" y="372" width="120" height="24" fill="#d8e4b0"/><rect x="2532" y="372" width="144" height="24" fill="#d8e4b0"/><rect x="2844" y="372" width="72" height="24" fill="#d8e4b0"/><rect x="2988" y="372" width="120" height="24" fill="#d8e4b0"/><rect x="3348" y="372" width="96" height="24" fill="#d8e4b0"/><rect x="3468" y="372" width="216" height="24" fill="#d8e4b0"/><rect x="3804" y="372" width="96" height="24" fill="#d8e4b0"/><rect x="444" y="396" width="216" height="24" fill="#d8e4b0"/><rect x="828" y="396" width="96" height="24" fill="#d8e4b0"/><rect x="1092" y="396" width="48" height="24" fill="#d8e4b0"/><rect x="1188" y="396" width="144" height="24" fill="#d8e4b0"/><rect x="1500" y="396" width="120" height="24" fill="#d8e4b0"/><rect x="1716" y="396" width="96" height="24" fill="#d8e4b0"/><rect x="1884" y="396" width="192" height="24" fill="#d8e4b0"/><rect x="2268" y="396" width="120" height="24" fill="#d8e4b0"/><rect x="2532" y="396" width="144" height="24" fill="#d8e4b0"/><rect x="2844" y="396" width="96" height="24" fill="#d8e4b0"/><rect x="2964" y="396" width="96" height="24" fill="#d8e4b0"/><rect x="3348" y="396" width="360" height="24" fill="#d8e4b0"/><rect x="3804" y="396" width="96" height="24" fill="#d8e4b0"/><rect x="420" y="420" width="216" height="24" fill="#d8e4b0"/><rect x="828" y="420" width="144" height="24" fill="#d8e4b0"/><rect x="1020" y="420" width="48" height="24" fill="#d8e4b0"/><rect x="1092" y="420" width="48" height="24" fill="#d8e4b0"/><rect x="1188" y="420" width="144" height="24" fill="#d8e4b0"/><rect x="1500" y="420" width="120" height="24" fill="#d8e4b0"/><rect x="1716" y="420" width="96" height="24" fill="#d8e4b0"/><rect x="1884" y="420" width="168" height="24" fill="#d8e4b0"/><rect x="2268" y="420" width="120" height="24" fill="#d8e4b0"/><rect x="2532" y="420" width="144" height="24" fill="#d8e4b0"/><rect x="2844" y="420" width="264" height="24" fill="#d8e4b0"/><rect x="3348" y="420" width="408" height="24" fill="#d8e4b0"/><rect x="3780" y="420" width="120" height="24" fill="#d8e4b0"/><rect x="420" y="444" width="216" height="24" fill="#d8e4b0"/><rect x="828" y="444" width="120" height="24" fill="#d8e4b0"/><rect x="996" y="444" width="72" height="24" fill="#d8e4b0"/><rect x="1188" y="444" width="144" height="24" fill="#d8e4b0"/><rect x="1500" y="444" width="120" height="24" fill="#d8e4b0"/><rect x="1716" y="444" width="96" height="24" fill="#d8e4b0"/><rect x="1884" y="444" width="72" height="24" fill="#d8e4b0"/><rect x="1980" y="444" width="120" height="24" fill="#d8e4b0"/><rect x="2268" y="444" width="120" height="24" fill="#d8e4b0"/><rect x="2532" y="444" width="120" height="24" fill="#d8e4b0"/><rect x="2820" y="444" width="264" height="24" fill="#d8e4b0"/><rect x="3204" y="444" width="48" height="24" fill="#d8e4b0"/><rect x="3348" y="444" width="240" height="24" fill="#d8e4b0"/><rect x="3612" y="444" width="288" height="24" fill="#d8e4b0"/><rect x="396" y="468" width="72" height="24" fill="#d8e4b0"/><rect x="492" y="468" width="120" height="24" fill="#d8e4b0"/><rect x="828" y="468" width="240" height="24" fill="#d8e4b0"/><rect x="1188" y="468" width="144" height="24" fill="#d8e4b0"/><rect x="1500" y="468" width="120" height="24" fill="#d8e4b0"/><rect x="1716" y="468" width="72" height="24" fill="#d8e4b0"/><rect x="1884" y="468" width="72" height="24" fill="#d8e4b0"/><rect x="1980" y="468" width="120" height="24" fill="#d8e4b0"/><rect x="2268" y="468" width="120" height="24" fill="#d8e4b0"/><rect x="2532" y="468" width="552" height="24" fill="#d8e4b0"/><rect x="3180" y="468" width="48" height="24" fill="#d8e4b0"/><rect x="3348" y="468" width="216" height="24" fill="#d8e4b0"/><rect x="3636" y="468" width="264" height="24" fill="#d8e4b0"/><rect x="372" y="492" width="96" height="24" fill="#d8e4b0"/><rect x="492" y="492" width="96" height="24" fill="#d8e4b0"/><rect x="828" y="492" width="240" height="24" fill="#d8e4b0"/><rect x="1188" y="492" width="144" height="24" fill="#d8e4b0"/><rect x="1500" y="492" width="120" height="24" fill="#d8e4b0"/><rect x="1716" y="492" width="120" height="24" fill="#d8e4b0"/><rect x="1860" y="492" width="96" height="24" fill="#d8e4b0"/><rect x="1980" y="492" width="120" height="24" fill="#d8e4b0"/><rect x="2268" y="492" width="120" height="24" fill="#d8e4b0"/><rect x="2532" y="492" width="192" height="24" fill="#d8e4b0"/><rect x="2748" y="492" width="312" height="24" fill="#d8e4b0"/><rect x="3156" y="492" width="120" height="24" fill="#d8e4b0"/><rect x="3348" y="492" width="216" height="24" fill="#d8e4b0"/><rect x="3636" y="492" width="264" height="24" fill="#d8e4b0"/><rect x="4524" y="492" width="48" height="24" fill="#d8e4b0"/><rect x="348" y="516" width="240" height="24" fill="#d8e4b0"/><rect x="852" y="516" width="120" height="24" fill="#d8e4b0"/><rect x="996" y="516" width="72" height="24" fill="#d8e4b0"/><rect x="1188" y="516" width="144" height="24" fill="#d8e4b0"/><rect x="1524" y="516" width="96" height="24" fill="#d8e4b0"/><rect x="1716" y="516" width="120" height="24" fill="#d8e4b0"/><rect x="1860" y="516" width="72" height="24" fill="#d8e4b0"/><rect x="2004" y="516" width="96" height="24" fill="#d8e4b0"/><rect x="2268" y="516" width="120" height="24" fill="#d8e4b0"/><rect x="2532" y="516" width="192" height="24" fill="#d8e4b0"/><rect x="2748" y="516" width="72" height="24" fill="#d8e4b0"/><rect x="2844" y="516" width="264" height="24" fill="#d8e4b0"/><rect x="3180" y="516" width="96" height="24" fill="#d8e4b0"/><rect x="3348" y="516" width="96" height="24" fill="#d8e4b0"/><rect x="3468" y="516" width="96" height="24" fill="#d8e4b0"/><rect x="3660" y="516" width="240" height="24" fill="#d8e4b0"/><rect x="4524" y="516" width="48" height="24" fill="#d8e4b0"/><rect x="348" y="540" width="216" height="24" fill="#d8e4b0"/><rect x="852" y="540" width="120" height="24" fill="#d8e4b0"/><rect x="1020" y="540" width="48" height="24" fill="#d8e4b0"/><rect x="1116" y="540" width="24" height="24" fill="#d8e4b0"/><rect x="1188" y="540" width="144" height="24" fill="#d8e4b0"/><rect x="1428" y="540" width="24" height="24" fill="#d8e4b0"/><rect x="1500" y="540" width="120" height="24" fill="#d8e4b0"/><rect x="1716" y="540" width="120" height="24" fill="#d8e4b0"/><rect x="1860" y="540" width="48" height="24" fill="#d8e4b0"/><rect x="1980" y="540" width="96" height="24" fill="#d8e4b0"/><rect x="2268" y="540" width="120" height="24" fill="#d8e4b0"/><rect x="2532" y="540" width="144" height="24" fill="#d8e4b0"/><rect x="2844" y="540" width="264" height="24" fill="#d8e4b0"/><rect x="3204" y="540" width="72" height="24" fill="#d8e4b0"/><rect x="3348" y="540" width="96" height="24" fill="#d8e4b0"/><rect x="3468" y="540" width="96" height="24" fill="#d8e4b0"/><rect x="3684" y="540" width="216" height="24" fill="#d8e4b0"/><rect x="4524" y="540" width="48" height="24" fill="#d8e4b0"/><rect x="324" y="564" width="216" height="24" fill="#d8e4b0"/><rect x="852" y="564" width="96" height="24" fill="#d8e4b0"/><rect x="1044" y="564" width="24" height="24" fill="#d8e4b0"/><rect x="1092" y="564" width="48" height="24" fill="#d8e4b0"/><rect x="1188" y="564" width="144" height="24" fill="#d8e4b0"/><rect x="1404" y="564" width="48" height="24" fill="#d8e4b0"/><rect x="1500" y="564" width="120" height="24" fill="#d8e4b0"/><rect x="1716" y="564" width="96" height="24" fill="#d8e4b0"/><rect x="1836" y="564" width="288" height="24" fill="#d8e4b0"/><rect x="2268" y="564" width="120" height="24" fill="#d8e4b0"/><rect x="2532" y="564" width="144" height="24" fill="#d8e4b0"/><rect x="2844" y="564" width="264" height="24" fill="#d8e4b0"/><rect x="3204" y="564" width="48" height="24" fill="#d8e4b0"/><rect x="3348" y="564" width="96" height="24" fill="#d8e4b0"/><rect x="3468" y="564" width="96" height="24" fill="#d8e4b0"/><rect x="3708" y="564" width="192" height="24" fill="#d8e4b0"/><rect x="4524" y="564" width="48" height="24" fill="#d8e4b0"/><rect x="300" y="588" width="96" height="24" fill="#d8e4b0"/><rect x="420" y="588" width="96" height="24" fill="#d8e4b0"/><rect x="828" y="588" width="120" height="24" fill="#d8e4b0"/><rect x="1044" y="588" width="24" height="24" fill="#d8e4b0"/><rect x="1092" y="588" width="48" height="24" fill="#d8e4b0"/><rect x="1188" y="588" width="144" height="24" fill="#d8e4b0"/><rect x="1404" y="588" width="48" height="24" fill="#d8e4b0"/><rect x="1500" y="588" width="120" height="24" fill="#d8e4b0"/><rect x="1692" y="588" width="120" height="24" fill="#d8e4b0"/><rect x="1836" y="588" width="144" height="24" fill="#d8e4b0"/><rect x="2004" y="588" width="120" height="24" fill="#d8e4b0"/><rect x="2268" y="588" width="120" height="24" fill="#d8e4b0"/><rect x="2532" y="588" width="144" height="24" fill="#d8e4b0"/><rect x="2844" y="588" width="264" height="24" fill="#d8e4b0"/><rect x="3204" y="588" width="24" height="24" fill="#d8e4b0"/><rect x="3348" y="588" width="96" height="24" fill="#d8e4b0"/><rect x="3468" y="588" width="96" height="24" fill="#d8e4b0"/><rect x="3708" y="588" width="24" height="24" fill="#d8e4b0"/><rect x="3756" y="588" width="144" height="24" fill="#d8e4b0"/><rect x="4524" y="588" width="48" height="24" fill="#d8e4b0"/><rect x="300" y="612" width="96" height="24" fill="#d8e4b0"/><rect x="420" y="612" width="96" height="24" fill="#d8e4b0"/><rect x="828" y="612" width="120" height="24" fill="#d8e4b0"/><rect x="1068" y="612" width="72" height="24" fill="#d8e4b0"/><rect x="1188" y="612" width="144" height="24" fill="#d8e4b0"/><rect x="1380" y="612" width="72" height="24" fill="#d8e4b0"/><rect x="1500" y="612" width="120" height="24" fill="#d8e4b0"/><rect x="1692" y="612" width="120" height="24" fill="#d8e4b0"/><rect x="1836" y="612" width="72" height="24" fill="#d8e4b0"/><rect x="2028" y="612" width="72" height="24" fill="#d8e4b0"/><rect x="2268" y="612" width="120" height="24" fill="#d8e4b0"/><rect x="2532" y="612" width="144" height="24" fill="#d8e4b0"/><rect x="2844" y="612" width="264" height="24" fill="#d8e4b0"/><rect x="3348" y="612" width="216" height="24" fill="#d8e4b0"/><rect x="3756" y="612" width="144" height="24" fill="#d8e4b0"/><rect x="4428" y="612" width="72" height="24" fill="#d8e4b0"/><rect x="4524" y="612" width="48" height="24" fill="#d8e4b0"/><rect x="276" y="636" width="216" height="24" fill="#d8e4b0"/><rect x="828" y="636" width="120" height="24" fill="#d8e4b0"/><rect x="1068" y="636" width="72" height="24" fill="#d8e4b0"/><rect x="1188" y="636" width="144" height="24" fill="#d8e4b0"/><rect x="1380" y="636" width="72" height="24" fill="#d8e4b0"/><rect x="1500" y="636" width="120" height="24" fill="#d8e4b0"/><rect x="1692" y="636" width="120" height="24" fill="#d8e4b0"/><rect x="1836" y="636" width="72" height="24" fill="#d8e4b0"/><rect x="2028" y="636" width="120" height="24" fill="#d8e4b0"/><rect x="2268" y="636" width="120" height="24" fill="#d8e4b0"/><rect x="2532" y="636" width="144" height="24" fill="#d8e4b0"/><rect x="2844" y="636" width="120" height="24" fill="#d8e4b0"/><rect x="2988" y="636" width="120" height="24" fill="#d8e4b0"/><rect x="3324" y="636" width="120" height="24" fill="#d8e4b0"/><rect x="3468" y="636" width="96" height="24" fill="#d8e4b0"/><rect x="3780" y="636" width="120" height="24" fill="#d8e4b0"/><rect x="3996" y="636" width="96" height="24" fill="#d8e4b0"/><rect x="4116" y="636" width="96" height="24" fill="#d8e4b0"/><rect x="4332" y="636" width="72" height="24" fill="#d8e4b0"/><rect x="4428" y="636" width="72" height="24" fill="#d8e4b0"/><rect x="4524" y="636" width="48" height="24" fill="#d8e4b0"/><rect x="4596" y="636" width="72" height="24" fill="#d8e4b0"/><rect x="276" y="660" width="192" height="24" fill="#d8e4b0"/><rect x="852" y="660" width="96" height="24" fill="#d8e4b0"/><rect x="1044" y="660" width="96" height="24" fill="#d8e4b0"/><rect x="1188" y="660" width="144" height="24" fill="#d8e4b0"/><rect x="1356" y="660" width="96" height="24" fill="#d8e4b0"/><rect x="1500" y="660" width="120" height="24" fill="#d8e4b0"/><rect x="1668" y="660" width="120" height="24" fill="#d8e4b0"/><rect x="1812" y="660" width="96" height="24" fill="#d8e4b0"/><rect x="2028" y="660" width="120" height="24" fill="#d8e4b0"/><rect x="2268" y="660" width="120" height="24" fill="#d8e4b0"/><rect x="2532" y="660" width="144" height="24" fill="#d8e4b0"/><rect x="2844" y="660" width="120" height="24" fill="#d8e4b0"/><rect x="3012" y="660" width="72" height="24" fill="#d8e4b0"/><rect x="3324" y="660" width="120" height="24" fill="#d8e4b0"/><rect x="3468" y="660" width="96" height="24" fill="#d8e4b0"/><rect x="3804" y="660" width="96" height="24" fill="#d8e4b0"/><rect x="3996" y="660" width="48" height="24" fill="#d8e4b0"/><rect x="4116" y="660" width="48" height="24" fill="#d8e4b0"/><rect x="4332" y="660" width="72" height="24" fill="#d8e4b0"/><rect x="4428" y="660" width="72" height="24" fill="#d8e4b0"/><rect x="4524" y="660" width="120" height="24" fill="#d8e4b0"/><rect x="252" y="684" width="72" height="24" fill="#d8e4b0"/><rect x="348" y="684" width="120" height="24" fill="#d8e4b0"/><rect x="828" y="684" width="96" height="24" fill="#d8e4b0"/><rect x="1044" y="684" width="96" height="24" fill="#d8e4b0"/><rect x="1188" y="684" width="144" height="24" fill="#d8e4b0"/><rect x="1356" y="684" width="96" height="24" fill="#d8e4b0"/><rect x="1500" y="684" width="120" height="24" fill="#d8e4b0"/><rect x="1644" y="684" width="144" height="24" fill="#d8e4b0"/><rect x="1812" y="684" width="72" height="24" fill="#d8e4b0"/><rect x="2028" y="684" width="96" height="24" fill="#d8e4b0"/><rect x="2244" y="684" width="144" height="24" fill="#d8e4b0"/><rect x="2532" y="684" width="144" height="24" fill="#d8e4b0"/><rect x="2844" y="684" width="120" height="24" fill="#d8e4b0"/><rect x="3012" y="684" width="96" height="24" fill="#d8e4b0"/><rect x="3300" y="684" width="120" height="24" fill="#d8e4b0"/><rect x="3444" y="684" width="120" height="24" fill="#d8e4b0"/><rect x="3828" y="684" width="72" height="24" fill="#d8e4b0"/><rect x="3996" y="684" width="24" height="24" fill="#d8e4b0"/><rect x="4116" y="684" width="24" height="24" fill="#d8e4b0"/><rect x="4236" y="684" width="48" height="24" fill="#d8e4b0"/><rect x="4332" y="684" width="72" height="24" fill="#d8e4b0"/><rect x="4428" y="684" width="72" height="24" fill="#d8e4b0"/><rect x="4524" y="684" width="72" height="24" fill="#d8e4b0"/><rect x="228" y="708" width="96" height="24" fill="#d8e4b0"/><rect x="348" y="708" width="96" height="24" fill="#d8e4b0"/><rect x="804" y="708" width="144" height="24" fill="#d8e4b0"/><rect x="1020" y="708" width="120" height="24" fill="#d8e4b0"/><rect x="1164" y="708" width="288" height="24" fill="#d8e4b0"/><rect x="1500" y="708" width="264" height="24" fill="#d8e4b0"/><rect x="1788" y="708" width="96" height="24" fill="#d8e4b0"/><rect x="2028" y="708" width="144" height="24" fill="#d8e4b0"/><rect x="2244" y="708" width="120" height="24" fill="#d8e4b0"/><rect x="2532" y="708" width="144" height="24" fill="#d8e4b0"/><rect x="2820" y="708" width="144" height="24" fill="#d8e4b0"/><rect x="3036" y="708" width="96" height="24" fill="#d8e4b0"/><rect x="3252" y="708" width="144" height="24" fill="#d8e4b0"/><rect x="3444" y="708" width="96" height="24" fill="#d8e4b0"/><rect x="3852" y="708" width="48" height="24" fill="#d8e4b0"/><rect x="3996" y="708" width="24" height="24" fill="#d8e4b0"/><rect x="4236" y="708" width="24" height="24" fill="#d8e4b0"/><rect x="4308" y="708" width="96" height="24" fill="#d8e4b0"/><rect x="4428" y="708" width="72" height="24" fill="#d8e4b0"/><rect x="4524" y="708" width="48" height="24" fill="#d8e4b0"/><rect x="204" y="732" width="216" height="24" fill="#d8e4b0"/><rect x="780" y="732" width="336" height="24" fill="#d8e4b0"/><rect x="1140" y="732" width="312" height="24" fill="#d8e4b0"/><rect x="1476" y="732" width="96" height="24" fill="#d8e4b0"/><rect x="1596" y="732" width="120" height="24" fill="#d8e4b0"/><rect x="1812" y="732" width="48" height="24" fill="#d8e4b0"/><rect x="2028" y="732" width="144" height="24" fill="#d8e4b0"/><rect x="2220" y="732" width="168" height="24" fill="#d8e4b0"/><rect x="2508" y="732" width="144" height="24" fill="#d8e4b0"/><rect x="2796" y="732" width="144" height="24" fill="#d8e4b0"/><rect x="3036" y="732" width="24" height="24" fill="#d8e4b0"/><rect x="3084" y="732" width="288" height="24" fill="#d8e4b0"/><rect x="3444" y="732" width="24" height="24" fill="#d8e4b0"/><rect x="3492" y="732" width="72" height="24" fill="#d8e4b0"/><rect x="3876" y="732" width="24" height="24" fill="#d8e4b0"/><rect x="3924" y="732" width="24" height="24" fill="#d8e4b0"/><rect x="4212" y="732" width="48" height="24" fill="#d8e4b0"/><rect x="4284" y="732" width="48" height="24" fill="#d8e4b0"/><rect x="4356" y="732" width="216" height="24" fill="#d8e4b0"/><rect x="4620" y="732" width="24" height="24" fill="#d8e4b0"/><rect x="204" y="756" width="216" height="24" fill="#d8e4b0"/><rect x="756" y="756" width="72" height="24" fill="#d8e4b0"/><rect x="852" y="756" width="264" height="24" fill="#d8e4b0"/><rect x="1140" y="756" width="312" height="24" fill="#d8e4b0"/><rect x="1476" y="756" width="96" height="24" fill="#d8e4b0"/><rect x="1596" y="756" width="96" height="24" fill="#d8e4b0"/><rect x="1812" y="756" width="120" height="24" fill="#d8e4b0"/><rect x="2028" y="756" width="144" height="24" fill="#d8e4b0"/><rect x="2244" y="756" width="144" height="24" fill="#d8e4b0"/><rect x="2412" y="756" width="48" height="24" fill="#d8e4b0"/><rect x="2532" y="756" width="168" height="24" fill="#d8e4b0"/><rect x="2820" y="756" width="144" height="24" fill="#d8e4b0"/><rect x="3084" y="756" width="240" height="24" fill="#d8e4b0"/><rect x="3516" y="756" width="96" height="24" fill="#d8e4b0"/><rect x="3876" y="756" width="24" height="24" fill="#d8e4b0"/><rect x="3924" y="756" width="72" height="24" fill="#d8e4b0"/><rect x="4044" y="756" width="72" height="24" fill="#d8e4b0"/><rect x="4164" y="756" width="96" height="24" fill="#d8e4b0"/><rect x="4284" y="756" width="48" height="24" fill="#d8e4b0"/><rect x="4380" y="756" width="72" height="24" fill="#d8e4b0"/><rect x="4476" y="756" width="96" height="24" fill="#d8e4b0"/><rect x="4620" y="756" width="72" height="24" fill="#d8e4b0"/><rect x="180" y="780" width="216" height="24" fill="#d8e4b0"/><rect x="708" y="780" width="120" height="24" fill="#d8e4b0"/><rect x="852" y="780" width="216" height="24" fill="#d8e4b0"/><rect x="1140" y="780" width="312" height="24" fill="#d8e4b0"/><rect x="2244" y="780" width="144" height="24" fill="#d8e4b0"/><rect x="2412" y="780" width="48" height="24" fill="#d8e4b0"/><rect x="2532" y="780" width="168" height="24" fill="#d8e4b0"/><rect x="2820" y="780" width="192" height="24" fill="#d8e4b0"/><rect x="3516" y="780" width="96" height="24" fill="#d8e4b0"/><rect x="4044" y="780" width="48" height="24" fill="#d8e4b0"/><rect x="4164" y="780" width="48" height="24" fill="#d8e4b0"/><rect x="4380" y="780" width="48" height="24" fill="#d8e4b0"/><rect x="4476" y="780" width="96" height="24" fill="#d8e4b0"/><rect x="4620" y="780" width="72" height="24" fill="#d8e4b0"/><rect x="180" y="804" width="168" height="24" fill="#d8e4b0"/><rect x="684" y="804" width="144" height="24" fill="#d8e4b0"/><rect x="156" y="828" width="216" height="24" fill="#d8e4b0"/><rect x="660" y="828" width="168" height="24" fill="#d8e4b0"/><rect x="132" y="852" width="672" height="24" fill="#d8e4b0"/><rect x="132" y="876" width="672" height="24" fill="#d8e4b0"/><rect x="132" y="900" width="360" height="24" fill="#d8e4b0"/><rect x="516" y="900" width="96" height="24" fill="#d8e4b0"/><rect x="636" y="900" width="96" height="24" fill="#d8e4b0"/><rect x="756" y="900" width="24" height="24" fill="#d8e4b0"/><rect x="516" y="924" width="96" height="24" fill="#d8e4b0"/><rect x="636" y="924" width="72" height="24" fill="#d8e4b0"/><rect x="756" y="924" width="24" height="24" fill="#d8e4b0"/>
</svg>
