<?xml version="1.0" standalone="no"?>

<svg viewBox="0 0 1561 387" style="background-color:#ffffff00" version="1.1" xmlns="http://www.w3.org/2000/svg" xmlns:xlink="http://www.w3.org/1999/xlink" xml:space="preserve" x="0px" y="0px" width="100%" height="100%">
	<defs>
		<linearGradient id="gradient1" x1="14.6%" y1="90.5%" x2="75%" y2="18.6%">
			<stop stop-color="#f8901d" stop-opacity="1" offset="0%"/>
			<stop stop-color="#fcac19" stop-opacity="1" offset="12.2%"/>
			<stop stop-color="#feb614" stop-opacity="1" offset="27.2%"/>
			<stop stop-color="#fbaa1a" stop-opacity="1" offset="40.6%"/>
			<stop stop-color="#f48221" stop-opacity="1" offset="100%"/>
		</linearGradient>
	</defs>
	<g id="Background">
		<path d="M 247.5 30.5 C 247.5 37.5 240.5 36.5 233.5 43.5 C 233.5 43.5 234.5 44.5 235.5 44.5 L 295.5 17.5 C 305.5 22.5 311.5 37.5 315.5 46.5 C 317.5 45.5 321.5 43.5 323.5 48.5 C 330.5 61.5 339.5 87.5 339.5 89.5 C 339.5 92.5 326.5 100.5 319.5 105.5 C 319.5 105.5 318.5 106.5 321.5 106.5 C 323.5 106.5 330.5 102.5 332.5 102.5 C 336.5 102.5 348.5 143.5 348.5 144.5 C 348.5 151.5 312.5 168.5 309.5 170.5 C 298.5 177.5 286.5 181.5 280.5 191.5 L 338.5 168.5 C 339.5 169.5 341.5 169.5 341.5 170.5 C 346.5 182.5 352.5 204.5 352.5 206.5 C 352.5 214.5 333.5 220.5 331.5 222.5 C 335.5 218.5 338.5 214.5 340.5 210.5 C 340.5 210.5 340.5 209.5 339.5 208.5 C 329.5 220.5 311.5 229.5 300.5 240.5 L 300.5 242.5 C 308.5 238.5 319.5 235.5 321.5 235.5 C 330.5 235.5 341.5 264.5 341.5 266.5 C 341.5 271.5 330.5 283.5 328.5 287.5 C 323.5 295.5 319.5 305.5 316.5 314.5 C 316.5 314.5 315.5 315.5 318.5 315.5 C 320.5 315.5 323.5 313.5 326.5 312.5 C 324.5 314.5 315.5 325.5 312.5 325.5 C 305.5 325.5 285.5 297.5 282.5 291.5 C 271.5 299.5 221.5 343.5 214.5 343.5 C 208.5 343.5 188.5 324.5 188.5 320.5 C 188.5 309.5 210.5 288.5 215.5 280.5 L 155.5 326.5 C 144.5 319.5 135.5 307.5 130.5 298.5 L 84.5 333.5 C 79.5 330.5 61.5 311.5 61.5 306.5 C 61.5 298.5 108.5 249.5 113.5 244.5 L 42.5 308.5 C 35.5 305.5 21.5 294.5 21.5 286.5 C 21.5 262.5 99.5 187.5 109.5 177.5 C 98.5 184.5 82.5 196.5 72.5 209.5 C 77.5 199.5 86.5 191.5 87.5 185.5 C 81.5 191.5 45.5 237.5 37.5 237.5 C 26.5 237.5 13.5 216.5 13.5 210.5 C 13.5 203.5 37.5 181.5 40.5 179.5 C 56.5 164.5 75.5 149.5 92.5 136.5 C 92.5 136.5 93.5 135.5 92.5 133.5 L 22.5 185.5 C 18.5 184.5 0.5 168.5 0.5 163.5 C 0.5 151.5 42.5 106.5 46.5 101.5 L 46.5 100.5 C 42.5 102.5 35.5 104.5 32.5 104.5 C 30.5 104.5 26.5 104.5 24.5 100.5 C 19.5 88.5 11.5 65.5 11.5 62.5 C 11.5 49.5 62.5 16.5 70.5 11.5 C 74.5 17.5 80.5 29.5 82.5 29.5 C 85.5 29.5 123.5 9.5 125.5 9.5 C 137.5 9.5 140.5 39.5 140.5 40.5 C 141.5 40.5 140.5 41.5 143.5 41.5 C 145.5 41.5 165.5 29.5 178.5 23.5 C 197.5 14.5 218.5 1.5 238.5 0.5 C 240.5 1.5 247.5 24.5 247.5 30.5 ZM 260.5 66.5 C 260.5 68.5 232.5 102.5 232.5 105.5 C 232.5 107.5 234.5 107.5 235.5 108.5 C 233.5 110.5 229.5 113.5 227.5 117.5 C 214.5 141.5 186.5 171.5 185.5 196.5 C 170.5 206.5 177.5 232.5 157.5 232.5 C 154.5 232.5 146.5 230.5 145.5 223.5 L 196.5 62.5 C 197.5 62.5 197.5 63.5 200.5 63.5 C 202.5 63.5 203.5 61.5 203.5 60.5 C 237.5 60.5 241.5 59.5 243.5 59.5 C 246.5 59.5 260.5 60.5 260.5 66.5 ZM 160.5 252.5 C 161.5 253.5 164.5 256.5 164.5 258.5 C 164.5 261.5 163.5 265.5 162.5 268.5 C 158.5 272.5 148.5 281.5 144.5 281.5 C 135.5 281.5 122.5 274.5 122.5 265.5 C 122.5 262.5 122.5 263.5 122.5 262.5 C 125.5 258.5 130.5 252.5 135.5 249.5 C 137.5 247.5 142.5 247.5 144.5 247.5 C 146.5 247.5 159.5 249.5 160.5 252.5 Z" stroke="#ffffff" stroke-width="1" fill="url(#gradient1)"/>
		<path d="M 529.5 54.5 C 529.5 63.5 517.5 72.5 509.5 72.5 C 506.5 72.5 501.5 71.5 502.5 65.5 C 504.5 64.5 509.5 61.5 509.5 59.5 C 509.5 55.5 503.5 54.5 502.5 54.5 C 499.5 54.5 491.5 57.5 486.5 57.5 C 474.5 58.5 456.5 71.5 456.5 80.5 C 456.5 92.5 479.5 107.5 488.5 113.5 C 494.5 118.5 499.5 126.5 504.5 132.5 C 516.5 145.5 525.5 160.5 525.5 173.5 C 525.5 188.5 515.5 206.5 498.5 220.5 C 494.5 223.5 488.5 224.5 485.5 226.5 C 479.5 229.5 472.5 237.5 466.5 239.5 C 453.5 244.5 436.5 252.5 422.5 252.5 C 420.5 252.5 403.5 251.5 395.5 249.5 C 392.5 249.5 388.5 241 385.5 239 C 385.5 231 384.5 225.5 384.5 222.5 C 384.5 198.5 408.5 175.5 433.5 158.5 C 427.5 176.5 399.5 203.5 399.5 223.5 C 399.5 236.5 413.5 237.5 419.5 237.5 C 440.5 237.5 509.5 213.5 509.5 174.5 C 509.5 161.5 499.5 151.5 488.5 137.5 C 485.5 132.5 482.5 125.5 478.5 121.5 C 463.5 108.5 438.5 101.5 438.5 82.5 C 438.5 50.5 488.5 38.5 504.5 38.5 C 513.5 38.5 529.5 38.5 529.5 54.5 ZM 1289.5 59.5 C 1289.5 73.5 1273.5 98.5 1266.5 111.5 C 1265.5 112.5 1243.5 158.5 1243.5 166.5 L 1243.5 174.5 C 1243.5 174.5 1242.5 175.5 1245.5 175.5 C 1247.5 175.5 1251.5 173.5 1254.5 173.5 L 1277.5 173.5 C 1282.5 172.5 1287.5 172.5 1292.5 170.5 C 1306.5 163.5 1321.5 136.5 1336.5 136.5 C 1342.5 136.5 1355.5 140.5 1355.5 150.5 C 1355.5 163.5 1333.5 183.5 1322.5 191.5 C 1310.5 199.5 1299.5 208.5 1289.5 219.5 C 1288.5 220.5 1288.5 223.5 1288.5 226.5 C 1288.5 236.5 1295.5 244.5 1304.5 244.5 C 1352.5 244.5 1392.5 140.5 1432.5 140.5 C 1438.5 140.5 1441.5 146.5 1441.5 152.5 C 1441.5 162.5 1420.5 190.5 1411.5 198.5 L 1408.5 198.5 C 1407.5 196.5 1407.5 193.5 1407.5 190.5 C 1407.5 188.5 1409.5 179.5 1409.5 173.5 C 1397.5 180.5 1371.5 212.5 1371.5 226.5 C 1371.5 232.5 1375.5 241.5 1378.5 241.5 C 1398.5 241.5 1413.5 221.5 1435.5 202.5 L 1438.5 202.5 L 1438.5 207.5 C 1437.5 210.5 1435.5 213.5 1434.5 216.5 C 1432.5 220.5 1425.5 230.5 1421.5 234.5 C 1413.5 240.5 1390.5 258.5 1379.5 258.5 C 1369.5 258.5 1352.5 246.5 1355.5 234.5 L 1354.5 230.5 C 1344.5 239.5 1315.5 260.5 1301.5 260.5 C 1298.5 260.5 1287.5 256.5 1282.5 254.5 C 1273.5 251.5 1267.5 226.5 1267.5 217.5 C 1267.5 208.5 1279.5 192.5 1283.5 184.5 L 1282.5 183.5 C 1270.5 186.5 1256.5 186.5 1244.5 190.5 C 1240.5 191.5 1237.5 197.5 1235.5 200.5 C 1231.5 208.5 1228.5 219.5 1225.5 228.5 C 1222.5 241.5 1219.5 256.5 1212.5 272.5 C 1210.5 276.5 1209.5 283.5 1207.5 288.5 C 1202.5 303.5 1197.5 321.5 1193.5 337.5 C 1191.5 345.5 1174.5 377.5 1171.5 377.5 C 1165.5 377.5 1166.5 367.5 1166.5 366.5 C 1166.5 363.5 1181.5 322.5 1186.5 309.5 C 1191.5 297.5 1193.5 284.5 1197.5 273.5 C 1199.5 264.5 1218.5 220.5 1218.5 206.5 C 1218.5 204.5 1214.5 193.5 1212.5 193.5 C 1209.5 193.5 1183.5 195.5 1170.5 200.5 C 1157.5 205.5 1155.5 221.5 1152.5 231.5 C 1149.5 245.5 1146.5 258.5 1141.5 273.5 C 1134.5 290.5 1128.5 309.5 1122.5 329.5 C 1118.5 340.5 1116.5 354.5 1113.5 366.5 C 1112.5 372.5 1103.5 386.5 1101.5 386.5 C 1095.5 386.5 1093.5 381.5 1093.5 378.5 C 1093.5 375.5 1126.5 272.5 1144.5 221.5 C 1144.5 219.5 1149.5 216.5 1149.5 214.5 C 1149.5 211.5 1146.5 207.5 1142.5 203.5 C 1128.5 218.5 1068.5 254.5 1050.5 254.5 C 1048.5 254.5 1037.5 253.5 1032.5 251.5 C 1023.5 249.5 1013.5 231.5 1013.5 224.5 L 1013.5 205.5 C 1015.5 194.5 1017.5 183.5 1024.5 172.5 C 1023.5 171.5 1021.5 170.5 1019.5 170.5 C 1016.5 170.5 995.5 178.5 992.5 178.5 C 986.5 178.5 982.5 170.5 982.5 168.5 C 982.5 161.5 1001.5 157.5 1003.5 156.5 C 1008.5 155.5 1013.5 153.5 1018.5 152.5 C 1026.5 151.5 1033.5 137.5 1037.5 130.5 C 1042.5 117.5 1054.5 102.5 1054.5 89.5 C 1051.5 91.5 1047.5 93.5 1044.5 93.5 C 1037.5 93.5 1037.5 83.5 1037.5 82.5 C 1037.5 72.5 1043.5 73.5 1054.5 69.5 C 1061.5 67.5 1069.5 64.5 1076.5 63.5 C 1102.5 59.5 1130.5 53.5 1156.5 53.5 C 1160.5 53.5 1174.5 52.5 1176.5 58.5 C 1146.5 71.5 1112.5 63.5 1081.5 82.5 C 1069.5 89.5 1063.5 104.5 1060.5 113.5 C 1056.5 124.5 1052.5 136.5 1046.5 148.5 C 1048.5 149.5 1049.5 150.5 1052.5 150.5 C 1054.5 150.5 1079.5 146.5 1092.5 144.5 C 1102.5 142.5 1120.5 137.5 1122.5 137.5 C 1126.5 137.5 1132.5 136.5 1137.5 143.5 C 1127.5 145.5 1116.5 148.5 1106.5 151.5 C 1100.5 152.5 1093.5 156.5 1086.5 158.5 C 1073.5 161.5 1058.5 160.5 1046.5 163.5 C 1030.5 167.5 1029.5 200.5 1029.5 213.5 C 1029.5 226.5 1033.5 237.5 1050.5 237.5 C 1052.5 237.5 1062.5 235.5 1068.5 233.5 C 1095.5 222.5 1127.5 200.5 1144.5 188.5 C 1148.5 184.5 1156.5 183.5 1158.5 178.5 C 1171.5 146.5 1188.5 56.5 1208.5 56.5 C 1216.5 56.5 1216.5 65.5 1216.5 68.5 C 1216.5 86.5 1200.5 106.5 1191.5 125.5 C 1189.5 128.5 1170.5 167.5 1170.5 177.5 L 1170.5 184.5 C 1171.5 184.5 1170.5 185.5 1172.5 185.5 C 1175.5 185.5 1206.5 180.5 1223.5 177.5 C 1224.5 177.5 1226.5 175.5 1226.5 174.5 C 1230.5 167.5 1231.5 159.5 1234.5 153.5 C 1238.5 140.5 1244.5 127.5 1248.5 114.5 C 1249.5 111.5 1266.5 46.5 1281.5 46.5 C 1288.5 46.5 1289.5 57.5 1289.5 59.5 ZM 1003.5 59.5 C 1004.5 60.5 1005.5 61.5 1005.5 63.5 C 1005.5 66.5 997.5 76.5 995.5 83.5 C 989.5 98.5 982.5 115.5 976.5 132.5 C 965.5 163.5 943.5 227.5 943.5 229.5 C 943.5 232.5 945.5 233.5 945.5 236.5 C 945.5 242.5 934.5 255.5 929.5 255.5 C 921.5 255.5 923.5 241.5 923.5 241.5 C 923.5 239.5 923.5 238.5 923.5 237.5 C 922.5 227.5 933.5 224.5 932.5 216.5 C 938.5 196.5 947.5 175.5 953.5 154.5 C 954.5 154.5 956.5 152.5 956.5 151.5 C 957.5 148.5 958.5 145.5 958.5 142.5 C 963.5 131.5 967.5 119.5 971.5 107.5 C 976.5 93.5 979.5 78.5 984.5 63.5 C 985.5 62.5 984.5 63.5 984.5 60.5 C 984.5 56.5 995.5 54.5 996.5 54.5 C 999.5 54.5 1001.5 58.5 1003.5 59.5 ZM 1528.5 65.5 C 1528.5 76.5 1490.5 133.5 1490.5 155.5 C 1490.5 158.5 1490.5 160.5 1492.5 160.5 C 1495.5 160.5 1544.5 151.5 1547.5 151.5 C 1549.5 151.5 1557.5 150.5 1560.5 156.5 C 1560.5 157.5 1559.5 158.5 1558.5 158.5 C 1533.5 168.5 1505.5 166.5 1481.5 186.5 C 1477.5 188.5 1475.5 195.5 1474.5 199.5 C 1470.5 211.5 1469.5 226.5 1466.5 240.5 C 1465.5 246.5 1462.5 255.5 1454.5 263.5 C 1449.5 261.5 1446.5 254.5 1446.5 250.5 C 1446.5 232.5 1461.5 212.5 1461.5 194.5 C 1461.5 189.5 1444.5 183.5 1444.5 176.5 C 1444.5 174.5 1444.5 172.5 1447.5 171.5 C 1453.5 168.5 1462.5 167.5 1469.5 163.5 C 1477.5 158.5 1477.5 147.5 1480.5 142.5 C 1488.5 125.5 1494.5 110.5 1498.5 94.5 C 1499.5 92.5 1499.5 90.5 1499.5 88.5 C 1507.5 74.5 1500.5 58.5 1519.5 58.5 C 1525.5 58.5 1528.5 60.5 1528.5 65.5 ZM 876.5 91.5 C 876.5 96.5 867.5 103.5 863.5 103.5 C 855.5 103.5 853.5 91.5 853.5 89.5 C 853.5 85.5 855.5 82.5 861.5 82.5 C 862.5 82.5 876.5 85.5 876.5 91.5 ZM 939.5 137.5 C 939.5 146.5 929.5 158.5 925.5 165.5 C 920.5 173.5 914.5 181.5 910.5 190.5 C 908.5 193.5 909.5 199.5 910.5 203.5 L 895.5 259.5 L 887.5 259.5 C 881.5 256.5 877.5 252.5 877.5 247.5 C 877.5 244.5 879.5 242.5 881.5 240.5 C 886.5 234.5 887.5 225.5 887.5 216.5 C 881.5 221.5 873.5 226.5 867.5 232.5 C 857.5 242.5 852.5 248.5 844.5 248.5 C 834.5 248.5 832.5 241.5 832.5 235.5 C 832.5 211.5 897.5 149.5 913.5 136.5 C 918.5 131.5 927.5 127.5 931.5 127.5 C 938.5 127.5 939.5 136.5 939.5 137.5 ZM 579.5 137.5 C 584.5 140.5 592.5 144.5 599.5 147.5 C 607.5 150.5 622.5 174.5 622.5 185.5 C 622.5 194.5 598.5 230.5 590.5 234.5 C 581.5 239.5 573.5 245.5 564.5 250.5 C 559.5 253.5 550.5 261.5 547.5 261.5 C 543.5 261.5 533.5 252.5 533.5 249.5 C 527.5 262.5 522.5 275.5 518.5 288.5 C 517.5 289.5 513.5 329.5 497.5 329.5 C 491.5 329.5 491.5 317.5 491.5 317.5 C 491.5 309.5 501.5 295.5 503.5 290.5 C 519.5 250.5 532.5 214.5 541.5 175.5 C 542.5 171.5 546.5 130.5 568.5 130.5 C 570.5 130.5 574.5 135.5 579.5 137.5 ZM 713.5 144.5 C 713.5 165.5 654.5 200.5 647.5 213.5 C 646.5 214.5 646.5 217.5 646.5 220.5 C 646.5 228.5 651.5 238.5 662.5 238.5 C 667.5 238.5 679.5 231.5 683.5 229.5 C 720.5 209.5 731.5 164.5 770.5 140.5 C 774.5 137.5 784.5 134.5 786.5 134.5 C 793.5 134.5 796.5 140.5 796.5 146.5 C 796.5 153.5 783.5 166.5 777.5 174.5 C 772.5 179.5 771.5 186.5 767.5 192.5 L 760.5 192.5 C 760.5 191.5 759.5 190.5 759.5 188.5 C 759.5 185.5 762.5 180.5 763.5 176.5 L 762.5 167.5 C 754.5 177.5 725.5 205.5 725.5 219.5 C 725.5 225.5 730.5 236.5 736.5 236.5 C 739.5 236.5 753.5 229.5 761.5 224.5 C 764.5 222.5 767.5 218.5 770.5 215.5 C 776.5 209.5 781.5 198.5 789.5 198.5 C 794.5 198.5 795.5 199.5 795.5 202.5 C 795.5 207.5 787.5 213.5 782.5 220.5 C 780.5 222.5 777.5 227.5 773.5 230.5 C 766.5 234.5 744.5 252.5 734.5 252.5 C 723.5 252.5 709.5 240.5 708.5 228.5 C 703.5 234.5 671.5 253.5 661.5 253.5 C 659.5 253.5 645.5 251.5 639.5 247.5 C 633.5 244.5 631.5 236.5 629.5 230.5 C 627.5 224.5 626.5 214.5 626.5 212.5 C 626.5 188.5 678.5 130.5 694.5 130.5 C 700.5 130.5 713.5 135.5 713.5 144.5 ZM 851.5 152.5 C 851.5 159.5 822.5 200.5 815.5 223.5 C 812.5 233.5 816.5 243.5 805.5 253.5 C 796.5 244.5 797.5 245.5 797.5 237.5 C 797.5 213.5 828.5 180.5 828.5 160.5 C 828.5 156.5 828.5 154.5 824.5 151.5 C 829.5 147.5 836.5 138.5 839.5 138.5 C 844.5 138.5 851.5 149.5 851.5 152.5 ZM 658.5 182.5 C 667.5 171.5 679.5 149.5 694.5 147.5 C 689.5 162.5 673.5 178.5 658.5 182.5 ZM 603.5 182.5 C 603.5 197.5 559.5 244.5 559.5 234.5 C 559.5 232.5 566.5 223.5 571.5 218.5 C 569.5 215.5 565.5 212.5 563.5 212.5 C 556.5 212.5 546.5 224.5 539.5 232.5 C 547.5 213.5 555.5 193.5 563.5 173.5 C 565.5 168.5 564.5 159.5 571.5 153.5 C 585.5 153.5 603.5 168.5 603.5 182.5 ZM 1302.5 187.5 C 1307.5 178.5 1322.5 155.5 1335.5 153.5 C 1336.5 163.5 1313.5 183.5 1302.5 187.5 ZM 852.5 224.5 C 852.5 214.5 898.5 170.5 899.5 170.5 C 882.5 205.5 852.5 234.5 852.5 224.5 ZM 1509.5 244.5 L 1509.5 246.5 L 1502.5 246.5 L 1502.5 266.5 L 1500.5 266.5 L 1500.5 246.5 L 1493.5 246.5 L 1493.5 244.5 L 1509.5 244.5 ZM 1532.5 244.5 C 1533.5 251.5 1533.5 258.5 1534.5 265.5 C 1534.5 265.5 1533.5 266.5 1532.5 266.5 C 1532.5 260.5 1531.5 253.5 1530.5 247.5 C 1528.5 253.5 1526.5 259.5 1523.5 265.5 C 1520.5 260.5 1518.5 253.5 1515.5 247.5 C 1512.5 253.5 1516.5 259.5 1512.5 265.5 C 1513.5 255.5 1513.5 250.5 1513.5 244.5 C 1519.5 245.5 1519.5 255.5 1523.5 262.5 C 1526.5 255.5 1524.5 249.5 1532.5 244.5 Z" stroke="#ffffff" stroke-width="1" fill="#ffffff" fill-rule="evenodd"/>
		<path d="M 260.5 66.5 C 260.5 68.5 232.5 102.5 232.5 105.5 C 232.5 107.5 234.5 107.5 235.5 108.5 C 233.5 110.5 229.5 113.5 227.5 117.5 C 214.5 141.5 186.5 171.5 185.5 196.5 C 170.5 206.5 177.5 232.5 157.5 232.5 C 154.5 232.5 146.5 230.5 145.5 223.5 L 196.5 62.5 C 197.5 62.5 197.5 63.5 200.5 63.5 C 202.5 63.5 203.5 61.5 203.5 60.5 C 237.5 60.5 241.5 59.5 243.5 59.5 C 246.5 59.5 260.5 60.5 260.5 66.5 ZM 160.5 252.5 C 161.5 253.5 164.5 256.5 164.5 258.5 C 164.5 261.5 163.5 265.5 162.5 268.5 C 158.5 272.5 148.5 281.5 144.5 281.5 C 135.5 281.5 122.5 274.5 122.5 265.5 C 122.5 262.5 122.5 263.5 122.5 262.5 C 125.5 258.5 130.5 252.5 135.5 249.5 C 137.5 247.5 142.5 247.5 144.5 247.5 C 146.5 247.5 159.5 249.5 160.5 252.5 Z" stroke="#ffffff" stroke-width="1" fill="#ffffff"/>
	</g>
</svg>
